# Blender 3.4.1
# www.blender.org
mtllib block.mtl
o Cube
v -0.916667 -0.916667 0.916667
v -0.916667 0.916667 0.916667
v -0.916667 -0.916667 -0.916667
v -0.916667 0.916667 -0.916667
v 0.916667 -0.916667 0.916667
v 0.916667 0.916667 0.916667
v 0.916667 -0.916667 -0.916667
v 0.916667 0.916667 -0.916667
v -0.944445 -0.666667 0.944445
v -0.944445 -0.333333 0.944445
v -0.944445 0.000000 0.944445
v -0.944445 0.333333 0.944445
v -0.944445 0.666667 0.944445
v -0.944444 0.666667 -0.944445
v -0.944444 0.333333 -0.944445
v -0.944444 -0.000000 -0.944445
v -0.944444 -0.333333 -0.944445
v -0.944444 -0.666667 -0.944445
v 0.944445 0.666667 -0.944444
v 0.944445 0.333333 -0.944444
v 0.944445 -0.000000 -0.944444
v 0.944445 -0.333333 -0.944444
v 0.944445 -0.666667 -0.944444
v 0.944444 0.666667 0.944445
v 0.944444 0.333333 0.944445
v 0.944444 -0.000000 0.944445
v 0.944444 -0.333333 0.944445
v 0.944444 -0.666667 0.944445
v -0.944445 -0.944445 -0.666667
v -0.944445 -0.944445 -0.333333
v -0.944445 -0.944445 0.000000
v -0.944445 -0.944445 0.333333
v -0.944445 -0.944445 0.666667
v -0.944445 0.944445 0.666667
v -0.944445 0.944445 0.333333
v -0.944445 0.944445 -0.000000
v -0.944445 0.944445 -0.333333
v -0.944445 0.944445 -0.666667
v 0.944444 -0.944445 0.666667
v 0.944444 -0.944444 0.333333
v 0.944444 -0.944444 -0.000000
v 0.944444 -0.944444 -0.333333
v 0.944444 -0.944445 -0.666667
v 0.944445 0.944444 -0.666667
v 0.944444 0.944444 -0.333333
v 0.944444 0.944444 0.000000
v 0.944444 0.944444 0.333333
v 0.944445 0.944444 0.666667
v 1.000000 -0.666667 -0.666667
v 1.000000 -0.666667 -0.333333
v 1.000000 -0.666667 0.000000
v 1.000000 -0.666667 0.333333
v 1.000000 -0.666667 0.666667
v 1.000000 -0.333333 -0.666667
v 1.000000 -0.333333 -0.333333
v 1.000000 -0.333333 0.000000
v 1.000000 -0.333333 0.333333
v 1.000000 -0.333333 0.666667
v 1.000000 -0.000000 -0.666667
v 1.000000 -0.000000 -0.333333
v 1.000000 -0.000000 0.000000
v 1.000000 -0.000000 0.333333
v 1.000000 -0.000000 0.666667
v 1.000000 0.333333 -0.666667
v 1.000000 0.333333 -0.333333
v 1.000000 0.333333 0.000000
v 1.000000 0.333333 0.333333
v 1.000000 0.333333 0.666667
v 1.000000 0.666667 -0.666667
v 1.000000 0.666667 -0.333333
v 1.000000 0.666667 0.000000
v 1.000000 0.666667 0.333333
v 1.000000 0.666667 0.666667
v -1.000000 -0.666667 0.666667
v -1.000000 -0.666667 0.333333
v -1.000000 -0.666667 -0.000000
v -1.000000 -0.666667 -0.333333
v -1.000000 -0.666667 -0.666667
v -1.000000 -0.333333 0.666667
v -1.000000 -0.333333 0.333333
v -1.000000 -0.333333 -0.000000
v -1.000000 -0.333333 -0.333333
v -1.000000 -0.333333 -0.666667
v -1.000000 0.000000 0.666667
v -1.000000 0.000000 0.333333
v -1.000000 -0.000000 -0.000000
v -1.000000 -0.000000 -0.333333
v -1.000000 -0.000000 -0.666667
v -1.000000 0.333333 0.666667
v -1.000000 0.333333 0.333333
v -1.000000 0.333333 -0.000000
v -1.000000 0.333333 -0.333333
v -1.000000 0.333333 -0.666667
v -1.000000 0.666667 0.666667
v -1.000000 0.666667 0.333333
v -1.000000 0.666667 -0.000000
v -1.000000 0.666667 -0.333333
v -1.000000 0.666667 -0.666667
v 0.666667 -0.944445 -0.944445
v 0.333333 -0.944445 -0.944445
v -0.000000 -0.944445 -0.944445
v -0.333333 -0.944445 -0.944445
v -0.666667 -0.944445 -0.944445
v -0.666667 0.944445 -0.944445
v -0.333333 0.944445 -0.944445
v 0.000000 0.944445 -0.944445
v 0.333333 0.944445 -0.944445
v 0.666667 0.944445 -0.944445
v -0.666667 -0.944445 0.944445
v -0.333333 -0.944445 0.944445
v 0.000000 -0.944445 0.944445
v 0.333333 -0.944445 0.944445
v 0.666667 -0.944445 0.944445
v 0.666667 0.944445 0.944445
v 0.333333 0.944445 0.944445
v -0.000000 0.944445 0.944445
v -0.333333 0.944445 0.944445
v -0.666667 0.944445 0.944445
v 0.666667 -0.666667 1.000000
v 0.333333 -0.666667 1.000000
v -0.000000 -0.666667 1.000000
v -0.333333 -0.666667 1.000000
v -0.666667 -0.666667 1.000000
v 0.666667 -0.333333 1.000000
v 0.333333 -0.333333 1.000000
v -0.000000 -0.333333 1.000000
v -0.333333 -0.333333 1.000000
v -0.666667 -0.333333 1.000000
v 0.666667 -0.000000 1.000000
v 0.333333 -0.000000 1.000000
v -0.000000 0.000000 1.000000
v -0.333333 0.000000 1.000000
v -0.666667 0.000000 1.000000
v 0.666667 0.333333 1.000000
v 0.333333 0.333333 1.000000
v -0.000000 0.333333 1.000000
v -0.333333 0.333333 1.000000
v -0.666667 0.333333 1.000000
v 0.666667 0.666667 1.000000
v 0.333333 0.666667 1.000000
v -0.000000 0.666667 1.000000
v -0.333333 0.666667 1.000000
v -0.666667 0.666667 1.000000
v -0.666667 -0.666667 -1.000000
v -0.333333 -0.666667 -1.000000
v 0.000000 -0.666667 -1.000000
v 0.333333 -0.666667 -1.000000
v 0.666667 -0.666667 -1.000000
v -0.666667 -0.333333 -1.000000
v -0.333333 -0.333333 -1.000000
v 0.000000 -0.333333 -1.000000
v 0.333333 -0.333333 -1.000000
v 0.666667 -0.333333 -1.000000
v -0.666667 -0.000000 -1.000000
v -0.333333 -0.000000 -1.000000
v 0.000000 -0.000000 -1.000000
v 0.333333 -0.000000 -1.000000
v 0.666667 -0.000000 -1.000000
v -0.666667 0.333333 -1.000000
v -0.333333 0.333333 -1.000000
v 0.000000 0.333333 -1.000000
v 0.333333 0.333333 -1.000000
v 0.666667 0.333333 -1.000000
v -0.666667 0.666667 -1.000000
v -0.333333 0.666667 -1.000000
v 0.000000 0.666667 -1.000000
v 0.333333 0.666667 -1.000000
v 0.666667 0.666667 -1.000000
v -0.666667 1.000000 -0.666667
v -0.333333 1.000000 -0.666667
v 0.000000 1.000000 -0.666667
v 0.333333 1.000000 -0.666667
v 0.666667 1.000000 -0.666667
v -0.666667 1.000000 -0.333333
v -0.333333 1.000000 -0.333333
v 0.000000 1.000000 -0.333333
v 0.333333 1.000000 -0.333333
v 0.666667 1.000000 -0.333333
v -0.666667 1.000000 -0.000000
v -0.333333 1.000000 -0.000000
v 0.000000 1.000000 -0.000000
v 0.333333 1.000000 0.000000
v 0.666667 1.000000 0.000000
v -0.666667 1.000000 0.333333
v -0.333333 1.000000 0.333333
v 0.000000 1.000000 0.333333
v 0.333333 1.000000 0.333333
v 0.666667 1.000000 0.333333
v -0.666667 1.000000 0.666667
v -0.333333 1.000000 0.666667
v 0.000000 1.000000 0.666667
v 0.333333 1.000000 0.666667
v 0.666667 1.000000 0.666667
v 0.666667 -1.000000 -0.666667
v 0.333333 -1.000000 -0.666667
v -0.000000 -1.000000 -0.666667
v -0.333333 -1.000000 -0.666667
v -0.666667 -1.000000 -0.666667
v 0.666667 -1.000000 -0.333333
v 0.333333 -1.000000 -0.333333
v -0.000000 -1.000000 -0.333333
v -0.333333 -1.000000 -0.333333
v -0.666667 -1.000000 -0.333333
v 0.666667 -1.000000 -0.000000
v 0.333333 -1.000000 -0.000000
v -0.000000 -1.000000 -0.000000
v -0.333333 -1.000000 0.000000
v -0.666667 -1.000000 0.000000
v 0.666667 -1.000000 0.333333
v 0.333333 -1.000000 0.333333
v -0.000000 -1.000000 0.333333
v -0.333333 -1.000000 0.333333
v -0.666667 -1.000000 0.333333
v 0.666667 -1.000000 0.666667
v 0.333333 -1.000000 0.666667
v -0.000000 -1.000000 0.666667
v -0.333333 -1.000000 0.666667
v -0.666667 -1.000000 0.666667
v -0.939686 -0.939686 0.822788
v -0.939686 0.822788 0.939686
v -0.939686 0.939686 -0.822788
v -0.939686 -0.822788 -0.939686
v -0.822788 -0.939686 -0.939686
v 0.822788 0.939686 -0.939686
v 0.939686 -0.822788 -0.939686
v 0.939686 -0.939686 -0.822788
v 0.939686 0.939686 0.822788
v 0.939686 -0.822788 0.939686
v 0.822788 -0.939686 0.939686
v -0.822788 0.939686 0.939686
v -0.939686 -0.822788 0.939686
v -0.944445 -0.500000 0.944445
v -0.944445 -0.166667 0.944445
v -0.944445 0.166667 0.944445
v -0.944445 0.500000 0.944445
v -0.939686 0.822788 -0.939686
v -0.944444 0.500000 -0.944444
v -0.944444 0.166667 -0.944444
v -0.944444 -0.166667 -0.944444
v -0.944444 -0.500000 -0.944444
v 0.939686 0.822788 -0.939686
v 0.944444 0.500000 -0.944444
v 0.944444 0.166667 -0.944444
v 0.944444 -0.166667 -0.944444
v 0.944444 -0.500000 -0.944444
v 0.939686 0.822788 0.939686
v 0.944444 0.500000 0.944444
v 0.944444 0.166667 0.944444
v 0.944444 -0.166667 0.944444
v 0.944444 -0.500000 0.944444
v -0.826389 -0.666667 0.993056
v -0.826389 -0.333333 0.993056
v -0.826389 0.000000 0.993056
v -0.826389 0.333333 0.993056
v -0.826389 0.666667 0.993056
v 0.993056 -0.666667 0.826389
v 0.993056 -0.333333 0.826389
v 0.993056 -0.000000 0.826389
v 0.993056 0.333333 0.826389
v 0.993056 0.666667 0.826389
v 0.826389 -0.666667 -0.993056
v 0.826389 -0.333333 -0.993056
v 0.826389 -0.000000 -0.993056
v 0.826389 0.333333 -0.993056
v 0.826389 0.666667 -0.993056
v -0.993056 -0.666667 -0.826389
v -0.993056 -0.333333 -0.826389
v -0.993056 -0.000000 -0.826389
v -0.993056 0.333333 -0.826389
v -0.993056 0.666667 -0.826389
v -0.939686 -0.939686 -0.822788
v -0.944445 -0.944445 -0.500000
v -0.944445 -0.944445 -0.166667
v -0.944445 -0.944445 0.166667
v -0.944445 -0.944445 0.500000
v -0.939686 0.939686 0.822788
v -0.944445 0.944445 0.500000
v -0.944445 0.944445 0.166667
v -0.944445 0.944445 -0.166667
v -0.944445 0.944445 -0.500000
v 0.939686 -0.939686 0.822788
v 0.944444 -0.944444 0.500000
v 0.944444 -0.944444 0.166667
v 0.944444 -0.944444 -0.166667
v 0.944444 -0.944444 -0.500000
v 0.939686 0.939686 -0.822788
v 0.944444 0.944444 -0.500000
v 0.944444 0.944444 -0.166667
v 0.944444 0.944444 0.166667
v 0.944444 0.944444 0.500000
v 0.993056 -0.666667 -0.826389
v 1.000000 -0.666667 -0.500000
v 1.000000 -0.666667 -0.166667
v 1.000000 -0.666667 0.166667
v 1.000000 -0.666667 0.500000
v 0.993056 -0.333333 -0.826389
v 1.000000 -0.333333 -0.500000
v 1.000000 -0.333333 -0.166667
v 1.000000 -0.333333 0.166667
v 1.000000 -0.333333 0.500000
v 0.993056 -0.000000 -0.826389
v 1.000000 -0.000000 -0.500000
v 1.000000 -0.000000 -0.166667
v 1.000000 -0.000000 0.166667
v 1.000000 -0.000000 0.500000
v 0.993056 0.333333 -0.826389
v 1.000000 0.333333 -0.500000
v 1.000000 0.333333 -0.166667
v 1.000000 0.333333 0.166667
v 1.000000 0.333333 0.500000
v 0.993056 0.666667 -0.826389
v 1.000000 0.666667 -0.500000
v 1.000000 0.666667 -0.166667
v 1.000000 0.666667 0.166667
v 1.000000 0.666667 0.500000
v -0.993056 -0.666667 0.826389
v -1.000000 -0.666667 0.500000
v -1.000000 -0.666667 0.166667
v -1.000000 -0.666667 -0.166667
v -1.000000 -0.666667 -0.500000
v -0.993056 -0.333333 0.826389
v -1.000000 -0.333333 0.500000
v -1.000000 -0.333333 0.166667
v -1.000000 -0.333333 -0.166667
v -1.000000 -0.333333 -0.500000
v -0.993056 0.000000 0.826389
v -1.000000 0.000000 0.500000
v -1.000000 0.000000 0.166667
v -1.000000 -0.000000 -0.166667
v -1.000000 -0.000000 -0.500000
v -0.993056 0.333333 0.826389
v -1.000000 0.333333 0.500000
v -1.000000 0.333333 0.166667
v -1.000000 0.333333 -0.166667
v -1.000000 0.333333 -0.500000
v -0.993056 0.666667 0.826389
v -1.000000 0.666667 0.500000
v -1.000000 0.666667 0.166667
v -1.000000 0.666667 -0.166667
v -1.000000 0.666667 -0.500000
v -1.000000 0.500000 0.666667
v -1.000000 0.500000 0.333333
v -1.000000 0.500000 -0.000000
v -1.000000 0.500000 -0.333333
v -1.000000 0.500000 -0.666667
v -1.000000 0.166667 0.666667
v -1.000000 0.166667 0.333333
v -1.000000 0.166667 -0.000000
v -1.000000 0.166667 -0.333333
v -1.000000 0.166667 -0.666667
v -1.000000 -0.166667 0.666667
v -1.000000 -0.166667 0.333333
v -1.000000 -0.166667 -0.000000
v -1.000000 -0.166667 -0.333333
v -1.000000 -0.166667 -0.666667
v -1.000000 -0.500000 0.666667
v -1.000000 -0.500000 0.333333
v -1.000000 -0.500000 -0.000000
v -1.000000 -0.500000 -0.333333
v -1.000000 -0.500000 -0.666667
v -0.993056 -0.826389 0.666667
v -0.993056 -0.826389 0.333333
v -0.993056 -0.826389 -0.000000
v -0.993056 -0.826389 -0.333333
v -0.993056 -0.826389 -0.666667
v 1.000000 0.500000 -0.666667
v 1.000000 0.500000 -0.333333
v 1.000000 0.500000 0.000000
v 1.000000 0.500000 0.333333
v 1.000000 0.500000 0.666667
v 1.000000 0.166667 -0.666667
v 1.000000 0.166667 -0.333333
v 1.000000 0.166667 0.000000
v 1.000000 0.166667 0.333333
v 1.000000 0.166667 0.666667
v 1.000000 -0.166667 -0.666667
v 1.000000 -0.166667 -0.333333
v 1.000000 -0.166667 0.000000
v 1.000000 -0.166667 0.333333
v 1.000000 -0.166667 0.666667
v 1.000000 -0.500000 -0.666667
v 1.000000 -0.500000 -0.333333
v 1.000000 -0.500000 0.000000
v 1.000000 -0.500000 0.333333
v 1.000000 -0.500000 0.666667
v 0.993056 -0.826389 -0.666667
v 0.993056 -0.826389 -0.333333
v 0.993056 -0.826389 0.000000
v 0.993056 -0.826389 0.333333
v 0.993056 -0.826389 0.666667
v 0.826389 0.993056 -0.666667
v 0.826389 0.993056 -0.333333
v 0.826389 0.993056 0.000000
v 0.826389 0.993056 0.333333
v 0.826389 0.993056 0.666667
v -0.826389 -0.993056 -0.666667
v -0.826389 -0.993056 -0.333333
v -0.826389 -0.993056 0.000000
v -0.826389 -0.993056 0.333333
v -0.826389 -0.993056 0.666667
v 0.993056 0.826389 -0.666667
v 0.993056 0.826389 -0.333333
v 0.993056 0.826389 0.000000
v 0.993056 0.826389 0.333333
v 0.993056 0.826389 0.666667
v -0.993056 0.826389 0.666667
v -0.993056 0.826389 0.333333
v -0.993056 0.826389 -0.000000
v -0.993056 0.826389 -0.333333
v -0.993056 0.826389 -0.666667
v 0.822788 -0.939686 -0.939686
v 0.500000 -0.944445 -0.944445
v 0.166667 -0.944445 -0.944445
v -0.166667 -0.944445 -0.944445
v -0.500000 -0.944445 -0.944445
v -0.822788 0.939686 -0.939686
v -0.500000 0.944445 -0.944445
v -0.166667 0.944445 -0.944445
v 0.166667 0.944445 -0.944445
v 0.500000 0.944445 -0.944445
v -0.822788 -0.939686 0.939686
v -0.500000 -0.944445 0.944445
v -0.166667 -0.944445 0.944445
v 0.166667 -0.944445 0.944445
v 0.500000 -0.944445 0.944445
v 0.822788 0.939686 0.939686
v 0.500000 0.944445 0.944445
v 0.166667 0.944445 0.944445
v -0.166667 0.944445 0.944445
v -0.500000 0.944445 0.944445
v 0.826389 -0.666667 0.993056
v 0.500000 -0.666667 1.000000
v 0.166667 -0.666667 1.000000
v -0.166667 -0.666667 1.000000
v -0.500000 -0.666667 1.000000
v 0.826389 -0.333333 0.993056
v 0.500000 -0.333333 1.000000
v 0.166667 -0.333333 1.000000
v -0.166667 -0.333333 1.000000
v -0.500000 -0.333333 1.000000
v 0.826389 -0.000000 0.993056
v 0.500000 -0.000000 1.000000
v 0.166667 -0.000000 1.000000
v -0.166667 0.000000 1.000000
v -0.500000 0.000000 1.000000
v 0.826389 0.333333 0.993056
v 0.500000 0.333333 1.000000
v 0.166667 0.333333 1.000000
v -0.166667 0.333333 1.000000
v -0.500000 0.333333 1.000000
v 0.826389 0.666667 0.993056
v 0.500000 0.666667 1.000000
v 0.166667 0.666667 1.000000
v -0.166667 0.666667 1.000000
v -0.500000 0.666667 1.000000
v -0.826389 -0.666667 -0.993056
v -0.500000 -0.666667 -1.000000
v -0.166667 -0.666667 -1.000000
v 0.166667 -0.666667 -1.000000
v 0.500000 -0.666667 -1.000000
v -0.826389 -0.333333 -0.993056
v -0.500000 -0.333333 -1.000000
v -0.166667 -0.333333 -1.000000
v 0.166667 -0.333333 -1.000000
v 0.500000 -0.333333 -1.000000
v -0.826389 -0.000000 -0.993056
v -0.500000 -0.000000 -1.000000
v -0.166667 -0.000000 -1.000000
v 0.166667 -0.000000 -1.000000
v 0.500000 -0.000000 -1.000000
v -0.826389 0.333333 -0.993056
v -0.500000 0.333333 -1.000000
v -0.166667 0.333333 -1.000000
v 0.166667 0.333333 -1.000000
v 0.500000 0.333333 -1.000000
v -0.826389 0.666667 -0.993056
v -0.500000 0.666667 -1.000000
v -0.166667 0.666667 -1.000000
v 0.166667 0.666667 -1.000000
v 0.500000 0.666667 -1.000000
v -0.826389 0.993056 -0.666667
v -0.500000 1.000000 -0.666667
v -0.166667 1.000000 -0.666667
v 0.166667 1.000000 -0.666667
v 0.500000 1.000000 -0.666667
v -0.826389 0.993056 -0.333333
v -0.500000 1.000000 -0.333333
v -0.166667 1.000000 -0.333333
v 0.166667 1.000000 -0.333333
v 0.500000 1.000000 -0.333333
v -0.826389 0.993056 -0.000000
v -0.500000 1.000000 -0.000000
v -0.166667 1.000000 -0.000000
v 0.166667 1.000000 0.000000
v 0.500000 1.000000 0.000000
v -0.826389 0.993056 0.333333
v -0.500000 1.000000 0.333333
v -0.166667 1.000000 0.333333
v 0.166667 1.000000 0.333333
v 0.500000 1.000000 0.333333
v -0.826389 0.993056 0.666667
v -0.500000 1.000000 0.666667
v -0.166667 1.000000 0.666667
v 0.166667 1.000000 0.666667
v 0.500000 1.000000 0.666667
v 0.826389 -0.993056 -0.666667
v 0.500000 -1.000000 -0.666667
v 0.166667 -1.000000 -0.666667
v -0.166667 -1.000000 -0.666667
v -0.500000 -1.000000 -0.666667
v 0.826389 -0.993056 -0.333333
v 0.500000 -1.000000 -0.333333
v 0.166667 -1.000000 -0.333333
v -0.166667 -1.000000 -0.333333
v -0.500000 -1.000000 -0.333333
v 0.826389 -0.993056 -0.000000
v 0.500000 -1.000000 -0.000000
v 0.166667 -1.000000 -0.000000
v -0.166667 -1.000000 0.000000
v -0.500000 -1.000000 0.000000
v 0.826389 -0.993056 0.333333
v 0.500000 -1.000000 0.333333
v 0.166667 -1.000000 0.333333
v -0.166667 -1.000000 0.333333
v -0.500000 -1.000000 0.333333
v 0.826389 -0.993056 0.666667
v 0.500000 -1.000000 0.666667
v 0.166667 -1.000000 0.666667
v -0.166667 -1.000000 0.666667
v -0.500000 -1.000000 0.666667
v -0.666667 -1.000000 0.500000
v -0.333333 -1.000000 0.500000
v -0.000000 -1.000000 0.500000
v 0.333333 -1.000000 0.500000
v 0.666667 -1.000000 0.500000
v -0.666667 -1.000000 0.166667
v -0.333333 -1.000000 0.166667
v -0.000000 -1.000000 0.166667
v 0.333333 -1.000000 0.166667
v 0.666667 -1.000000 0.166667
v -0.666667 -1.000000 -0.166667
v -0.333333 -1.000000 -0.166667
v -0.000000 -1.000000 -0.166667
v 0.333333 -1.000000 -0.166667
v 0.666667 -1.000000 -0.166667
v -0.666667 -1.000000 -0.500000
v -0.333333 -1.000000 -0.500000
v -0.000000 -1.000000 -0.500000
v 0.333333 -1.000000 -0.500000
v 0.666667 -1.000000 -0.500000
v -0.666667 -0.993056 -0.826389
v -0.333333 -0.993056 -0.826389
v -0.000000 -0.993056 -0.826389
v 0.333333 -0.993056 -0.826389
v 0.666667 -0.993056 -0.826389
v 0.666667 1.000000 0.500000
v 0.333333 1.000000 0.500000
v 0.000000 1.000000 0.500000
v -0.333333 1.000000 0.500000
v -0.666667 1.000000 0.500000
v 0.666667 1.000000 0.166667
v 0.333333 1.000000 0.166667
v 0.000000 1.000000 0.166667
v -0.333333 1.000000 0.166667
v -0.666667 1.000000 0.166667
v 0.666667 1.000000 -0.166667
v 0.333333 1.000000 -0.166667
v 0.000000 1.000000 -0.166667
v -0.333333 1.000000 -0.166667
v -0.666667 1.000000 -0.166667
v 0.666667 1.000000 -0.500000
v 0.333333 1.000000 -0.500000
v 0.000000 1.000000 -0.500000
v -0.333333 1.000000 -0.500000
v -0.666667 1.000000 -0.500000
v 0.666667 0.993056 -0.826389
v 0.333333 0.993056 -0.826389
v 0.000000 0.993056 -0.826389
v -0.333333 0.993056 -0.826389
v -0.666667 0.993056 -0.826389
v -0.666667 0.500000 -1.000000
v -0.333333 0.500000 -1.000000
v 0.000000 0.500000 -1.000000
v 0.333333 0.500000 -1.000000
v 0.666667 0.500000 -1.000000
v -0.666667 0.166667 -1.000000
v -0.333333 0.166667 -1.000000
v 0.000000 0.166667 -1.000000
v 0.333333 0.166667 -1.000000
v 0.666667 0.166667 -1.000000
v -0.666667 -0.166667 -1.000000
v -0.333333 -0.166667 -1.000000
v 0.000000 -0.166667 -1.000000
v 0.333333 -0.166667 -1.000000
v 0.666667 -0.166667 -1.000000
v -0.666667 -0.500000 -1.000000
v -0.333333 -0.500000 -1.000000
v 0.000000 -0.500000 -1.000000
v 0.333333 -0.500000 -1.000000
v 0.666667 -0.500000 -1.000000
v -0.666667 -0.826389 -0.993056
v -0.333333 -0.826389 -0.993056
v 0.000000 -0.826389 -0.993056
v 0.333333 -0.826389 -0.993056
v 0.666667 -0.826389 -0.993056
v 0.666667 0.500000 1.000000
v 0.333333 0.500000 1.000000
v -0.000000 0.500000 1.000000
v -0.333333 0.500000 1.000000
v -0.666667 0.500000 1.000000
v 0.666667 0.166667 1.000000
v 0.333333 0.166667 1.000000
v -0.000000 0.166667 1.000000
v -0.333333 0.166667 1.000000
v -0.666667 0.166667 1.000000
v 0.666667 -0.166667 1.000000
v 0.333333 -0.166667 1.000000
v -0.000000 -0.166667 1.000000
v -0.333333 -0.166667 1.000000
v -0.666667 -0.166667 1.000000
v 0.666667 -0.500000 1.000000
v 0.333333 -0.500000 1.000000
v -0.000000 -0.500000 1.000000
v -0.333333 -0.500000 1.000000
v -0.666667 -0.500000 1.000000
v 0.666667 -0.826389 0.993056
v 0.333333 -0.826389 0.993056
v -0.000000 -0.826389 0.993056
v -0.333333 -0.826389 0.993056
v -0.666667 -0.826389 0.993056
v 0.666667 0.993056 0.826389
v 0.333333 0.993056 0.826389
v -0.000000 0.993056 0.826389
v -0.333333 0.993056 0.826389
v -0.666667 0.993056 0.826389
v -0.666667 -0.993056 0.826389
v -0.333333 -0.993056 0.826389
v 0.000000 -0.993056 0.826389
v 0.333333 -0.993056 0.826389
v 0.666667 -0.993056 0.826389
v 0.666667 0.826389 0.993056
v 0.333333 0.826389 0.993056
v -0.000000 0.826389 0.993056
v -0.333333 0.826389 0.993056
v -0.666667 0.826389 0.993056
v -0.666667 0.826389 -0.993056
v -0.333333 0.826389 -0.993056
v 0.000000 0.826389 -0.993056
v 0.333333 0.826389 -0.993056
v 0.666667 0.826389 -0.993056
v -0.986368 0.825489 -0.825489
v 0.825489 0.825489 -0.986368
v 0.986368 0.825489 0.825489
v -0.825489 0.825489 0.986368
v 0.825489 -0.986368 0.825489
v -0.825489 0.986368 0.825489
v -0.825489 -0.825489 0.986368
v -0.826389 -0.500000 0.993056
v -0.826389 -0.166667 0.993056
v -0.826389 0.166667 0.993056
v -0.826389 0.500000 0.993056
v 0.986368 -0.825489 0.825489
v 0.993056 -0.500000 0.826389
v 0.993056 -0.166667 0.826389
v 0.993056 0.166667 0.826389
v 0.993056 0.500000 0.826389
v 0.825489 -0.825489 -0.986368
v 0.826389 -0.500000 -0.993056
v 0.826389 -0.166667 -0.993056
v 0.826389 0.166667 -0.993056
v 0.826389 0.500000 -0.993056
v -0.986368 -0.825489 -0.825489
v -0.993056 -0.500000 -0.826389
v -0.993056 -0.166667 -0.826389
v -0.993056 0.166667 -0.826389
v -0.993056 0.500000 -0.826389
v -0.993056 0.500000 0.826389
v -1.000000 0.500000 0.500000
v -1.000000 0.500000 0.166667
v -1.000000 0.500000 -0.166667
v -1.000000 0.500000 -0.500000
v -0.993056 0.166667 0.826389
v -1.000000 0.166667 0.500000
v -1.000000 0.166667 0.166667
v -1.000000 0.166667 -0.166667
v -1.000000 0.166667 -0.500000
v -0.993056 -0.166667 0.826389
v -1.000000 -0.166667 0.500000
v -1.000000 -0.166667 0.166667
v -1.000000 -0.166667 -0.166667
v -1.000000 -0.166667 -0.500000
v -0.993056 -0.500000 0.826389
v -1.000000 -0.500000 0.500000
v -1.000000 -0.500000 0.166667
v -1.000000 -0.500000 -0.166667
v -1.000000 -0.500000 -0.500000
v -0.986368 -0.825489 0.825489
v -0.993056 -0.826389 0.500000
v -0.993056 -0.826389 0.166667
v -0.993056 -0.826389 -0.166667
v -0.993056 -0.826389 -0.500000
v 0.993056 0.500000 -0.826389
v 1.000000 0.500000 -0.500000
v 1.000000 0.500000 -0.166667
v 1.000000 0.500000 0.166667
v 1.000000 0.500000 0.500000
v 0.993056 0.166667 -0.826389
v 1.000000 0.166667 -0.500000
v 1.000000 0.166667 -0.166667
v 1.000000 0.166667 0.166667
v 1.000000 0.166667 0.500000
v 0.993056 -0.166667 -0.826389
v 1.000000 -0.166667 -0.500000
v 1.000000 -0.166667 -0.166667
v 1.000000 -0.166667 0.166667
v 1.000000 -0.166667 0.500000
v 0.993056 -0.500000 -0.826389
v 1.000000 -0.500000 -0.500000
v 1.000000 -0.500000 -0.166667
v 1.000000 -0.500000 0.166667
v 1.000000 -0.500000 0.500000
v 0.986368 -0.825489 -0.825489
v 0.993056 -0.826389 -0.500000
v 0.993056 -0.826389 -0.166667
v 0.993056 -0.826389 0.166667
v 0.993056 -0.826389 0.500000
v -0.825489 0.986368 -0.825489
v -0.826389 0.993056 -0.500000
v -0.826389 0.993056 -0.166667
v -0.826389 0.993056 0.166667
v -0.826389 0.993056 0.500000
v 0.825489 -0.986368 -0.825489
v 0.826389 -0.993056 -0.500000
v 0.826389 -0.993056 -0.166667
v 0.826389 -0.993056 0.166667
v 0.826389 -0.993056 0.500000
v 0.986368 0.825489 -0.825489
v 0.993056 0.826389 -0.500000
v 0.993056 0.826389 -0.166667
v 0.993056 0.826389 0.166667
v 0.993056 0.826389 0.500000
v -0.986368 0.825489 0.825489
v -0.993056 0.826389 0.500000
v -0.993056 0.826389 0.166667
v -0.993056 0.826389 -0.166667
v -0.993056 0.826389 -0.500000
v -0.826389 -0.993056 0.500000
v -0.500000 -1.000000 0.500000
v -0.166667 -1.000000 0.500000
v 0.166667 -1.000000 0.500000
v 0.500000 -1.000000 0.500000
v -0.826389 -0.993056 0.166667
v -0.500000 -1.000000 0.166667
v -0.166667 -1.000000 0.166667
v 0.166667 -1.000000 0.166667
v 0.500000 -1.000000 0.166667
v -0.826389 -0.993056 -0.166667
v -0.500000 -1.000000 -0.166667
v -0.166667 -1.000000 -0.166667
v 0.166667 -1.000000 -0.166667
v 0.500000 -1.000000 -0.166667
v -0.826389 -0.993056 -0.500000
v -0.500000 -1.000000 -0.500000
v -0.166667 -1.000000 -0.500000
v 0.166667 -1.000000 -0.500000
v 0.500000 -1.000000 -0.500000
v -0.825489 -0.986368 -0.825489
v -0.500000 -0.993056 -0.826389
v -0.166667 -0.993056 -0.826389
v 0.166667 -0.993056 -0.826389
v 0.500000 -0.993056 -0.826389
v 0.826389 0.993056 0.500000
v 0.500000 1.000000 0.500000
v 0.166667 1.000000 0.500000
v -0.166667 1.000000 0.500000
v -0.500000 1.000000 0.500000
v 0.826389 0.993056 0.166667
v 0.500000 1.000000 0.166667
v 0.166667 1.000000 0.166667
v -0.166667 1.000000 0.166667
v -0.500000 1.000000 0.166667
v 0.826389 0.993056 -0.166667
v 0.500000 1.000000 -0.166667
v 0.166667 1.000000 -0.166667
v -0.166667 1.000000 -0.166667
v -0.500000 1.000000 -0.166667
v 0.826389 0.993056 -0.500000
v 0.500000 1.000000 -0.500000
v 0.166667 1.000000 -0.500000
v -0.166667 1.000000 -0.500000
v -0.500000 1.000000 -0.500000
v 0.825489 0.986368 -0.825489
v 0.500000 0.993056 -0.826389
v 0.166667 0.993056 -0.826389
v -0.166667 0.993056 -0.826389
v -0.500000 0.993056 -0.826389
v -0.826389 0.500000 -0.993056
v -0.500000 0.500000 -1.000000
v -0.166667 0.500000 -1.000000
v 0.166667 0.500000 -1.000000
v 0.500000 0.500000 -1.000000
v -0.826389 0.166667 -0.993056
v -0.500000 0.166667 -1.000000
v -0.166667 0.166667 -1.000000
v 0.166667 0.166667 -1.000000
v 0.500000 0.166667 -1.000000
v -0.826389 -0.166667 -0.993056
v -0.500000 -0.166667 -1.000000
v -0.166667 -0.166667 -1.000000
v 0.166667 -0.166667 -1.000000
v 0.500000 -0.166667 -1.000000
v -0.826389 -0.500000 -0.993056
v -0.500000 -0.500000 -1.000000
v -0.166667 -0.500000 -1.000000
v 0.166667 -0.500000 -1.000000
v 0.500000 -0.500000 -1.000000
v -0.825489 -0.825489 -0.986368
v -0.500000 -0.826389 -0.993056
v -0.166667 -0.826389 -0.993056
v 0.166667 -0.826389 -0.993056
v 0.500000 -0.826389 -0.993056
v 0.826389 0.500000 0.993056
v 0.500000 0.500000 1.000000
v 0.166667 0.500000 1.000000
v -0.166667 0.500000 1.000000
v -0.500000 0.500000 1.000000
v 0.826389 0.166667 0.993056
v 0.500000 0.166667 1.000000
v 0.166667 0.166667 1.000000
v -0.166667 0.166667 1.000000
v -0.500000 0.166667 1.000000
v 0.826389 -0.166667 0.993056
v 0.500000 -0.166667 1.000000
v 0.166667 -0.166667 1.000000
v -0.166667 -0.166667 1.000000
v -0.500000 -0.166667 1.000000
v 0.826389 -0.500000 0.993056
v 0.500000 -0.500000 1.000000
v 0.166667 -0.500000 1.000000
v -0.166667 -0.500000 1.000000
v -0.500000 -0.500000 1.000000
v 0.825489 -0.825489 0.986368
v 0.500000 -0.826389 0.993056
v 0.166667 -0.826389 0.993056
v -0.166667 -0.826389 0.993056
v -0.500000 -0.826389 0.993056
v 0.825489 0.986368 0.825489
v 0.500000 0.993056 0.826389
v 0.166667 0.993056 0.826389
v -0.166667 0.993056 0.826389
v -0.500000 0.993056 0.826389
v -0.825489 -0.986368 0.825489
v -0.500000 -0.993056 0.826389
v -0.166667 -0.993056 0.826389
v 0.166667 -0.993056 0.826389
v 0.500000 -0.993056 0.826389
v 0.825489 0.825489 0.986368
v 0.500000 0.826389 0.993056
v 0.166667 0.826389 0.993056
v -0.166667 0.826389 0.993056
v -0.500000 0.826389 0.993056
v -0.825489 0.825489 -0.986368
v -0.500000 0.826389 -0.993056
v -0.166667 0.826389 -0.993056
v 0.166667 0.826389 -0.993056
v 0.500000 0.826389 -0.993056
vn -0.9982 0.0428 -0.0428
vn -0.9242 0.3797 -0.0404
vn -0.8797 0.3362 -0.3362
vn -0.9242 0.0404 -0.3797
vn 0.0428 0.0428 -0.9982
vn 0.0404 0.3797 -0.9242
vn 0.3362 0.3362 -0.8797
vn 0.3797 0.0404 -0.9242
vn 0.9982 0.0428 0.0428
vn 0.9242 0.3797 0.0404
vn 0.8797 0.3362 0.3362
vn 0.9242 0.0404 0.3797
vn -0.0428 0.0428 0.9982
vn -0.0404 0.3797 0.9242
vn -0.3362 0.3362 0.8797
vn -0.3797 0.0404 0.9242
vn 0.0428 -0.9982 0.0428
vn 0.3797 -0.9242 0.0404
vn 0.3362 -0.8797 0.3362
vn 0.0404 -0.9242 0.3797
vn -0.0428 0.9982 0.0428
vn -0.3797 0.9242 0.0404
vn -0.3362 0.8797 0.3362
vn -0.0404 0.9242 0.3797
vn -0.0404 -0.3797 0.9242
vn -0.0428 -0.0428 0.9982
vn -0.3797 -0.0404 0.9242
vn -0.3362 -0.3362 0.8797
vn -0.0434 -0.0000 0.9991
vn -0.3807 -0.0000 0.9247
vn 0.9242 -0.3797 0.0404
vn 0.9982 -0.0428 0.0428
vn 0.9242 -0.0404 0.3797
vn 0.8797 -0.3362 0.3362
vn 0.9991 -0.0000 0.0434
vn 0.9247 -0.0000 0.3808
vn 0.0404 -0.3797 -0.9242
vn 0.0428 -0.0428 -0.9982
vn 0.3797 -0.0404 -0.9242
vn 0.3362 -0.3362 -0.8797
vn 0.0434 -0.0000 -0.9991
vn 0.3808 -0.0000 -0.9247
vn -0.9242 -0.3797 -0.0404
vn -0.9982 -0.0428 -0.0428
vn -0.9242 -0.0404 -0.3797
vn -0.8797 -0.3362 -0.3362
vn -0.9991 -0.0000 -0.0434
vn -0.9247 -0.0000 -0.3808
vn -0.9247 -0.0000 0.3807
vn -0.9991 -0.0000 0.0434
vn -1.0000 -0.0000 -0.0000
vn -0.8797 -0.3362 0.3362
vn -0.9242 -0.0404 0.3797
vn -0.9982 -0.0428 0.0428
vn -0.9242 -0.3797 0.0404
vn -0.9247 -0.3807 -0.0000
vn -0.9991 -0.0434 -0.0000
vn 0.9247 -0.0000 -0.3807
vn 0.9991 -0.0000 -0.0434
vn 1.0000 -0.0000 -0.0000
vn 0.9247 -0.0000 -0.3808
vn 0.8797 -0.3362 -0.3362
vn 0.9242 -0.0404 -0.3797
vn 0.9982 -0.0428 -0.0428
vn 0.9242 -0.3797 -0.0404
vn 0.9247 -0.3808 -0.0000
vn 0.9991 -0.0434 -0.0000
vn -0.0404 0.9242 -0.3797
vn -0.3362 0.8797 -0.3362
vn -0.3797 0.9242 -0.0404
vn -0.0428 0.9982 -0.0428
vn -0.0434 0.9991 -0.0000
vn -0.3807 0.9247 -0.0000
vn 0.0404 -0.9242 -0.3797
vn 0.3362 -0.8797 -0.3362
vn 0.3797 -0.9242 -0.0404
vn 0.0428 -0.9982 -0.0428
vn 0.0434 -0.9991 -0.0000
vn 0.3807 -0.9247 -0.0000
vn 0.3808 -0.9247 -0.0000
vn 0.9242 0.0404 -0.3797
vn 0.8797 0.3362 -0.3362
vn 0.9242 0.3797 -0.0404
vn 0.9982 0.0428 -0.0428
vn 0.9991 0.0434 -0.0000
vn 0.9247 0.3808 -0.0000
vn -0.9242 0.0404 0.3797
vn -0.8797 0.3362 0.3362
vn -0.9242 0.3797 0.0404
vn -0.9982 0.0428 0.0428
vn -0.9991 0.0434 -0.0000
vn -0.9247 0.3807 -0.0000
vn -0.3807 -0.9247 -0.0000
vn -0.0434 -0.9991 -0.0000
vn -0.0000 -1.0000 -0.0000
vn -0.3362 -0.8797 -0.3362
vn -0.0404 -0.9242 -0.3797
vn -0.0428 -0.9982 -0.0428
vn -0.3797 -0.9242 -0.0404
vn -0.0000 -0.9247 -0.3807
vn -0.0000 -0.9991 -0.0434
vn 0.3808 0.9247 -0.0000
vn 0.0434 0.9991 -0.0000
vn -0.0000 1.0000 -0.0000
vn 0.3362 0.8797 -0.3362
vn 0.0404 0.9242 -0.3797
vn 0.0428 0.9982 -0.0428
vn 0.3797 0.9242 -0.0404
vn -0.0000 0.9247 -0.3807
vn -0.0000 0.9991 -0.0434
vn -0.3807 -0.0000 -0.9247
vn -0.0434 -0.0000 -0.9991
vn -0.0000 -0.0000 -1.0000
vn -0.3808 -0.0000 -0.9247
vn -0.3362 -0.3362 -0.8797
vn -0.3797 -0.0404 -0.9242
vn -0.0428 -0.0428 -0.9982
vn -0.0404 -0.3797 -0.9242
vn -0.0000 -0.3807 -0.9247
vn -0.0000 -0.0434 -0.9991
vn 0.3808 -0.0000 0.9247
vn 0.3807 -0.0000 0.9247
vn 0.0434 -0.0000 0.9991
vn -0.0000 -0.0000 1.0000
vn 0.3362 -0.3362 0.8797
vn 0.3797 -0.0404 0.9242
vn 0.0428 -0.0428 0.9982
vn 0.0404 -0.3797 0.9242
vn -0.0000 -0.3807 0.9247
vn -0.0000 -0.0434 0.9991
vn -0.0000 -0.3808 0.9247
vn 0.3797 0.9242 0.0404
vn 0.0428 0.9982 0.0428
vn 0.0404 0.9242 0.3797
vn 0.3362 0.8797 0.3362
vn -0.0000 0.9991 0.0434
vn -0.0000 0.9247 0.3807
vn -0.3797 -0.9242 0.0404
vn -0.0428 -0.9982 0.0428
vn -0.0404 -0.9242 0.3797
vn -0.3362 -0.8797 0.3362
vn -0.0000 -0.9991 0.0434
vn -0.0000 -0.9247 0.3807
vn 0.3797 0.0404 0.9242
vn 0.3362 0.3362 0.8797
vn 0.0404 0.3797 0.9242
vn 0.0428 0.0428 0.9982
vn -0.0000 0.0434 0.9991
vn -0.0000 0.3807 0.9247
vn -0.3797 0.0404 -0.9242
vn -0.3362 0.3362 -0.8797
vn -0.0404 0.3797 -0.9242
vn -0.0428 0.0428 -0.9982
vn -0.0000 0.0434 -0.9991
vn -0.0000 0.3807 -0.9247
vt 0.375000 1.000000
vt 0.375000 0.000000
vt 0.125000 0.750000
vt 0.625000 1.000000
vt 0.875000 0.750000
vt 0.625000 0.000000
vt 0.125000 0.500000
vt 0.375000 0.250000
vt 0.875000 0.500000
vt 0.625000 0.250000
vt 0.375000 0.750000
vt 0.625000 0.750000
vt 0.375000 0.500000
vt 0.625000 0.500000
vt 0.416667 1.000000
vt 0.416667 0.000000
vt 0.458333 1.000000
vt 0.458333 0.000000
vt 0.500000 1.000000
vt 0.500000 0.000000
vt 0.541667 1.000000
vt 0.541667 0.000000
vt 0.583333 1.000000
vt 0.583333 0.000000
vt 0.583333 0.250000
vt 0.541667 0.250000
vt 0.500000 0.250000
vt 0.458333 0.250000
vt 0.416667 0.250000
vt 0.583333 0.500000
vt 0.541667 0.500000
vt 0.500000 0.500000
vt 0.458333 0.500000
vt 0.416667 0.500000
vt 0.583333 0.750000
vt 0.541667 0.750000
vt 0.500000 0.750000
vt 0.458333 0.750000
vt 0.416667 0.750000
vt 0.375000 0.208333
vt 0.125000 0.541667
vt 0.375000 0.166667
vt 0.125000 0.583333
vt 0.375000 0.125000
vt 0.125000 0.625000
vt 0.375000 0.083333
vt 0.125000 0.666667
vt 0.375000 0.041667
vt 0.125000 0.708333
vt 0.875000 0.708333
vt 0.625000 0.041667
vt 0.875000 0.666667
vt 0.625000 0.083333
vt 0.875000 0.625000
vt 0.625000 0.125000
vt 0.875000 0.583333
vt 0.625000 0.166667
vt 0.875000 0.541667
vt 0.625000 0.208333
vt 0.375000 0.708333
vt 0.375000 0.666667
vt 0.375000 0.625000
vt 0.375000 0.583333
vt 0.375000 0.541667
vt 0.625000 0.541667
vt 0.625000 0.583333
vt 0.625000 0.625000
vt 0.625000 0.666667
vt 0.625000 0.708333
vt 0.416667 0.541667
vt 0.416667 0.583333
vt 0.416667 0.625000
vt 0.416667 0.666667
vt 0.416667 0.708333
vt 0.458333 0.541667
vt 0.458333 0.583333
vt 0.458333 0.625000
vt 0.458333 0.666667
vt 0.458333 0.708333
vt 0.500000 0.541667
vt 0.500000 0.583333
vt 0.500000 0.625000
vt 0.500000 0.666667
vt 0.500000 0.708333
vt 0.541667 0.541667
vt 0.541667 0.583333
vt 0.541667 0.625000
vt 0.541667 0.666667
vt 0.541667 0.708333
vt 0.583333 0.541667
vt 0.583333 0.583333
vt 0.583333 0.625000
vt 0.583333 0.666667
vt 0.583333 0.708333
vt 0.416667 0.041667
vt 0.416667 0.083333
vt 0.416667 0.125000
vt 0.416667 0.166667
vt 0.416667 0.208333
vt 0.458333 0.041667
vt 0.458333 0.083333
vt 0.458333 0.125000
vt 0.458333 0.166667
vt 0.458333 0.208333
vt 0.500000 0.041667
vt 0.500000 0.083333
vt 0.500000 0.125000
vt 0.500000 0.166667
vt 0.500000 0.208333
vt 0.541667 0.041667
vt 0.541667 0.083333
vt 0.541667 0.125000
vt 0.541667 0.166667
vt 0.541667 0.208333
vt 0.583333 0.041667
vt 0.583333 0.083333
vt 0.583333 0.125000
vt 0.583333 0.166667
vt 0.583333 0.208333
vt 0.333333 0.500000
vt 0.375000 0.458333
vt 0.291667 0.500000
vt 0.375000 0.416667
vt 0.250000 0.500000
vt 0.375000 0.375000
vt 0.208333 0.500000
vt 0.375000 0.333333
vt 0.166667 0.500000
vt 0.375000 0.291667
vt 0.833333 0.500000
vt 0.625000 0.291667
vt 0.791667 0.500000
vt 0.625000 0.333333
vt 0.750000 0.500000
vt 0.625000 0.375000
vt 0.708333 0.500000
vt 0.625000 0.416667
vt 0.666667 0.500000
vt 0.625000 0.458333
vt 0.375000 0.958333
vt 0.166667 0.750000
vt 0.375000 0.916667
vt 0.208333 0.750000
vt 0.375000 0.875000
vt 0.250000 0.750000
vt 0.375000 0.833333
vt 0.291667 0.750000
vt 0.375000 0.791667
vt 0.333333 0.750000
vt 0.666667 0.750000
vt 0.625000 0.791667
vt 0.708333 0.750000
vt 0.625000 0.833333
vt 0.750000 0.750000
vt 0.625000 0.875000
vt 0.791667 0.750000
vt 0.625000 0.916667
vt 0.833333 0.750000
vt 0.625000 0.958333
vt 0.416667 0.791667
vt 0.416667 0.833333
vt 0.416667 0.875000
vt 0.416667 0.916667
vt 0.416667 0.958333
vt 0.458333 0.791667
vt 0.458333 0.833333
vt 0.458333 0.875000
vt 0.458333 0.916667
vt 0.458333 0.958333
vt 0.500000 0.791667
vt 0.500000 0.833333
vt 0.500000 0.875000
vt 0.500000 0.916667
vt 0.500000 0.958333
vt 0.541667 0.791667
vt 0.541667 0.833333
vt 0.541667 0.875000
vt 0.541667 0.916667
vt 0.541667 0.958333
vt 0.583333 0.791667
vt 0.583333 0.833333
vt 0.583333 0.875000
vt 0.583333 0.916667
vt 0.583333 0.958333
vt 0.416667 0.291667
vt 0.416667 0.333333
vt 0.416667 0.375000
vt 0.416667 0.416667
vt 0.416667 0.458333
vt 0.458333 0.291667
vt 0.458333 0.333333
vt 0.458333 0.375000
vt 0.458333 0.416667
vt 0.458333 0.458333
vt 0.500000 0.291667
vt 0.500000 0.333333
vt 0.500000 0.375000
vt 0.500000 0.416667
vt 0.500000 0.458333
vt 0.541667 0.291667
vt 0.541667 0.333333
vt 0.541667 0.375000
vt 0.541667 0.416667
vt 0.541667 0.458333
vt 0.583333 0.291667
vt 0.583333 0.333333
vt 0.583333 0.375000
vt 0.583333 0.416667
vt 0.583333 0.458333
vt 0.833333 0.541667
vt 0.791667 0.541667
vt 0.750000 0.541667
vt 0.708333 0.541667
vt 0.666667 0.541667
vt 0.833333 0.583333
vt 0.791667 0.583333
vt 0.750000 0.583333
vt 0.708333 0.583333
vt 0.666667 0.583333
vt 0.833333 0.625000
vt 0.791667 0.625000
vt 0.750000 0.625000
vt 0.708333 0.625000
vt 0.666667 0.625000
vt 0.833333 0.666667
vt 0.791667 0.666667
vt 0.750000 0.666667
vt 0.708333 0.666667
vt 0.666667 0.666667
vt 0.833333 0.708333
vt 0.791667 0.708333
vt 0.750000 0.708333
vt 0.708333 0.708333
vt 0.666667 0.708333
vt 0.333333 0.541667
vt 0.291667 0.541667
vt 0.250000 0.541667
vt 0.208333 0.541667
vt 0.166667 0.541667
vt 0.333333 0.583333
vt 0.291667 0.583333
vt 0.250000 0.583333
vt 0.208333 0.583333
vt 0.166667 0.583333
vt 0.333333 0.625000
vt 0.291667 0.625000
vt 0.250000 0.625000
vt 0.208333 0.625000
vt 0.166667 0.625000
vt 0.333333 0.666667
vt 0.291667 0.666667
vt 0.250000 0.666667
vt 0.208333 0.666667
vt 0.166667 0.666667
vt 0.333333 0.708333
vt 0.291667 0.708333
vt 0.250000 0.708333
vt 0.208333 0.708333
vt 0.166667 0.708333
vt 0.375000 0.020833
vt 0.125000 0.729167
vt 0.604167 1.000000
vt 0.604167 0.000000
vt 0.625000 0.229167
vt 0.875000 0.520833
vt 0.395833 0.250000
vt 0.145833 0.500000
vt 0.375000 0.270833
vt 0.625000 0.479167
vt 0.645833 0.500000
vt 0.395833 0.500000
vt 0.375000 0.520833
vt 0.625000 0.729167
vt 0.395833 0.750000
vt 0.354167 0.750000
vt 0.375000 0.770833
vt 0.625000 0.979167
vt 0.854167 0.750000
vt 0.395833 1.000000
vt 0.395833 0.000000
vt 0.437500 1.000000
vt 0.437500 0.000000
vt 0.479167 1.000000
vt 0.479167 0.000000
vt 0.520833 1.000000
vt 0.520833 0.000000
vt 0.562500 1.000000
vt 0.562500 0.000000
vt 0.604167 0.250000
vt 0.562500 0.250000
vt 0.520833 0.250000
vt 0.479167 0.250000
vt 0.437500 0.250000
vt 0.604167 0.500000
vt 0.562500 0.500000
vt 0.520833 0.500000
vt 0.479167 0.500000
vt 0.437500 0.500000
vt 0.604167 0.750000
vt 0.562500 0.750000
vt 0.520833 0.750000
vt 0.479167 0.750000
vt 0.437500 0.750000
vt 0.416667 0.979167
vt 0.458333 0.979167
vt 0.500000 0.979167
vt 0.541667 0.979167
vt 0.583333 0.979167
vt 0.416667 0.729167
vt 0.458333 0.729167
vt 0.500000 0.729167
vt 0.541667 0.729167
vt 0.583333 0.729167
vt 0.416667 0.479167
vt 0.458333 0.479167
vt 0.500000 0.479167
vt 0.541667 0.479167
vt 0.583333 0.479167
vt 0.416667 0.229167
vt 0.458333 0.229167
vt 0.500000 0.229167
vt 0.541667 0.229167
vt 0.583333 0.229167
vt 0.375000 0.229167
vt 0.125000 0.520833
vt 0.375000 0.187500
vt 0.125000 0.562500
vt 0.375000 0.145833
vt 0.125000 0.604167
vt 0.375000 0.104167
vt 0.125000 0.645833
vt 0.375000 0.062500
vt 0.125000 0.687500
vt 0.875000 0.729167
vt 0.625000 0.020833
vt 0.875000 0.687500
vt 0.625000 0.062500
vt 0.875000 0.645833
vt 0.625000 0.104167
vt 0.875000 0.604167
vt 0.625000 0.145833
vt 0.875000 0.562500
vt 0.625000 0.187500
vt 0.375000 0.729167
vt 0.375000 0.687500
vt 0.375000 0.645833
vt 0.375000 0.604167
vt 0.375000 0.562500
vt 0.625000 0.520833
vt 0.625000 0.562500
vt 0.625000 0.604167
vt 0.625000 0.645833
vt 0.625000 0.687500
vt 0.416667 0.520833
vt 0.416667 0.562500
vt 0.416667 0.604167
vt 0.416667 0.645833
vt 0.416667 0.687500
vt 0.458333 0.520833
vt 0.458333 0.562500
vt 0.458333 0.604167
vt 0.458333 0.645833
vt 0.458333 0.687500
vt 0.500000 0.520833
vt 0.500000 0.562500
vt 0.500000 0.604167
vt 0.500000 0.645833
vt 0.500000 0.687500
vt 0.541667 0.520833
vt 0.541667 0.562500
vt 0.541667 0.604167
vt 0.541667 0.645833
vt 0.541667 0.687500
vt 0.583333 0.520833
vt 0.583333 0.562500
vt 0.583333 0.604167
vt 0.583333 0.645833
vt 0.583333 0.687500
vt 0.416667 0.020833
vt 0.416667 0.062500
vt 0.416667 0.104167
vt 0.416667 0.145833
vt 0.416667 0.187500
vt 0.458333 0.020833
vt 0.458333 0.062500
vt 0.458333 0.104167
vt 0.458333 0.145833
vt 0.458333 0.187500
vt 0.500000 0.020833
vt 0.500000 0.062500
vt 0.500000 0.104167
vt 0.500000 0.145833
vt 0.500000 0.187500
vt 0.541667 0.020833
vt 0.541667 0.062500
vt 0.541667 0.104167
vt 0.541667 0.145833
vt 0.541667 0.187500
vt 0.583333 0.020833
vt 0.583333 0.062500
vt 0.583333 0.104167
vt 0.583333 0.145833
vt 0.583333 0.187500
vt 0.562500 0.041667
vt 0.562500 0.083333
vt 0.562500 0.125000
vt 0.562500 0.166667
vt 0.562500 0.208333
vt 0.520833 0.041667
vt 0.520833 0.083333
vt 0.520833 0.125000
vt 0.520833 0.166667
vt 0.520833 0.208333
vt 0.479167 0.041667
vt 0.479167 0.083333
vt 0.479167 0.125000
vt 0.479167 0.166667
vt 0.479167 0.208333
vt 0.437500 0.041667
vt 0.437500 0.083333
vt 0.437500 0.125000
vt 0.437500 0.166667
vt 0.437500 0.208333
vt 0.395833 0.041667
vt 0.395833 0.083333
vt 0.395833 0.125000
vt 0.395833 0.166667
vt 0.395833 0.208333
vt 0.562500 0.541667
vt 0.562500 0.583333
vt 0.562500 0.625000
vt 0.562500 0.666667
vt 0.562500 0.708333
vt 0.520833 0.541667
vt 0.520833 0.583333
vt 0.520833 0.625000
vt 0.520833 0.666667
vt 0.520833 0.708333
vt 0.479167 0.541667
vt 0.479167 0.583333
vt 0.479167 0.625000
vt 0.479167 0.666667
vt 0.479167 0.708333
vt 0.437500 0.541667
vt 0.437500 0.583333
vt 0.437500 0.625000
vt 0.437500 0.666667
vt 0.437500 0.708333
vt 0.395833 0.541667
vt 0.395833 0.583333
vt 0.395833 0.625000
vt 0.395833 0.666667
vt 0.395833 0.708333
vt 0.645833 0.541667
vt 0.645833 0.583333
vt 0.645833 0.625000
vt 0.645833 0.666667
vt 0.645833 0.708333
vt 0.145833 0.541667
vt 0.145833 0.583333
vt 0.145833 0.625000
vt 0.145833 0.666667
vt 0.145833 0.708333
vt 0.604167 0.541667
vt 0.604167 0.583333
vt 0.604167 0.625000
vt 0.604167 0.666667
vt 0.604167 0.708333
vt 0.604167 0.041667
vt 0.604167 0.083333
vt 0.604167 0.125000
vt 0.604167 0.166667
vt 0.604167 0.208333
vt 0.375000 0.479167
vt 0.354167 0.500000
vt 0.312500 0.500000
vt 0.375000 0.437500
vt 0.270833 0.500000
vt 0.375000 0.395833
vt 0.229167 0.500000
vt 0.375000 0.354167
vt 0.187500 0.500000
vt 0.375000 0.312500
vt 0.854167 0.500000
vt 0.625000 0.270833
vt 0.812500 0.500000
vt 0.625000 0.312500
vt 0.770833 0.500000
vt 0.625000 0.354167
vt 0.729167 0.500000
vt 0.625000 0.395833
vt 0.687500 0.500000
vt 0.625000 0.437500
vt 0.375000 0.979167
vt 0.145833 0.750000
vt 0.375000 0.937500
vt 0.187500 0.750000
vt 0.375000 0.895833
vt 0.229167 0.750000
vt 0.375000 0.854167
vt 0.270833 0.750000
vt 0.375000 0.812500
vt 0.312500 0.750000
vt 0.645833 0.750000
vt 0.625000 0.770833
vt 0.687500 0.750000
vt 0.625000 0.812500
vt 0.729167 0.750000
vt 0.625000 0.854167
vt 0.770833 0.750000
vt 0.625000 0.895833
vt 0.812500 0.750000
vt 0.625000 0.937500
vt 0.416667 0.770833
vt 0.416667 0.812500
vt 0.416667 0.854167
vt 0.416667 0.895833
vt 0.416667 0.937500
vt 0.458333 0.770833
vt 0.458333 0.812500
vt 0.458333 0.854167
vt 0.458333 0.895833
vt 0.458333 0.937500
vt 0.500000 0.770833
vt 0.500000 0.812500
vt 0.500000 0.854167
vt 0.500000 0.895833
vt 0.500000 0.937500
vt 0.541667 0.770833
vt 0.541667 0.812500
vt 0.541667 0.854167
vt 0.541667 0.895833
vt 0.541667 0.937500
vt 0.583333 0.770833
vt 0.583333 0.812500
vt 0.583333 0.854167
vt 0.583333 0.895833
vt 0.583333 0.937500
vt 0.416667 0.270833
vt 0.416667 0.312500
vt 0.416667 0.354167
vt 0.416667 0.395833
vt 0.416667 0.437500
vt 0.458333 0.270833
vt 0.458333 0.312500
vt 0.458333 0.354167
vt 0.458333 0.395833
vt 0.458333 0.437500
vt 0.500000 0.270833
vt 0.500000 0.312500
vt 0.500000 0.354167
vt 0.500000 0.395833
vt 0.500000 0.437500
vt 0.541667 0.270833
vt 0.541667 0.312500
vt 0.541667 0.354167
vt 0.541667 0.395833
vt 0.541667 0.437500
vt 0.583333 0.270833
vt 0.583333 0.312500
vt 0.583333 0.354167
vt 0.583333 0.395833
vt 0.583333 0.437500
vt 0.854167 0.541667
vt 0.812500 0.541667
vt 0.770833 0.541667
vt 0.729167 0.541667
vt 0.687500 0.541667
vt 0.854167 0.583333
vt 0.812500 0.583333
vt 0.770833 0.583333
vt 0.729167 0.583333
vt 0.687500 0.583333
vt 0.854167 0.625000
vt 0.812500 0.625000
vt 0.770833 0.625000
vt 0.729167 0.625000
vt 0.687500 0.625000
vt 0.854167 0.666667
vt 0.812500 0.666667
vt 0.770833 0.666667
vt 0.729167 0.666667
vt 0.687500 0.666667
vt 0.854167 0.708333
vt 0.812500 0.708333
vt 0.770833 0.708333
vt 0.729167 0.708333
vt 0.687500 0.708333
vt 0.354167 0.541667
vt 0.312500 0.541667
vt 0.270833 0.541667
vt 0.229167 0.541667
vt 0.187500 0.541667
vt 0.354167 0.583333
vt 0.312500 0.583333
vt 0.270833 0.583333
vt 0.229167 0.583333
vt 0.187500 0.583333
vt 0.354167 0.625000
vt 0.312500 0.625000
vt 0.270833 0.625000
vt 0.229167 0.625000
vt 0.187500 0.625000
vt 0.354167 0.666667
vt 0.312500 0.666667
vt 0.270833 0.666667
vt 0.229167 0.666667
vt 0.187500 0.666667
vt 0.354167 0.708333
vt 0.312500 0.708333
vt 0.270833 0.708333
vt 0.229167 0.708333
vt 0.187500 0.708333
vt 0.166667 0.687500
vt 0.208333 0.687500
vt 0.250000 0.687500
vt 0.291667 0.687500
vt 0.333333 0.687500
vt 0.166667 0.645833
vt 0.208333 0.645833
vt 0.250000 0.645833
vt 0.291667 0.645833
vt 0.333333 0.645833
vt 0.166667 0.604167
vt 0.208333 0.604167
vt 0.250000 0.604167
vt 0.291667 0.604167
vt 0.333333 0.604167
vt 0.166667 0.562500
vt 0.208333 0.562500
vt 0.250000 0.562500
vt 0.291667 0.562500
vt 0.333333 0.562500
vt 0.166667 0.520833
vt 0.208333 0.520833
vt 0.250000 0.520833
vt 0.291667 0.520833
vt 0.333333 0.520833
vt 0.666667 0.687500
vt 0.708333 0.687500
vt 0.750000 0.687500
vt 0.791667 0.687500
vt 0.833333 0.687500
vt 0.666667 0.645833
vt 0.708333 0.645833
vt 0.750000 0.645833
vt 0.791667 0.645833
vt 0.833333 0.645833
vt 0.666667 0.604167
vt 0.708333 0.604167
vt 0.750000 0.604167
vt 0.791667 0.604167
vt 0.833333 0.604167
vt 0.666667 0.562500
vt 0.708333 0.562500
vt 0.750000 0.562500
vt 0.791667 0.562500
vt 0.833333 0.562500
vt 0.666667 0.520833
vt 0.708333 0.520833
vt 0.750000 0.520833
vt 0.791667 0.520833
vt 0.833333 0.520833
vt 0.562500 0.291667
vt 0.562500 0.333333
vt 0.562500 0.375000
vt 0.562500 0.416667
vt 0.562500 0.458333
vt 0.520833 0.291667
vt 0.520833 0.333333
vt 0.520833 0.375000
vt 0.520833 0.416667
vt 0.520833 0.458333
vt 0.479167 0.291667
vt 0.479167 0.333333
vt 0.479167 0.375000
vt 0.479167 0.416667
vt 0.479167 0.458333
vt 0.437500 0.291667
vt 0.437500 0.333333
vt 0.437500 0.375000
vt 0.437500 0.416667
vt 0.437500 0.458333
vt 0.395833 0.291667
vt 0.395833 0.333333
vt 0.395833 0.375000
vt 0.395833 0.416667
vt 0.395833 0.458333
vt 0.562500 0.791667
vt 0.562500 0.833333
vt 0.562500 0.875000
vt 0.562500 0.916667
vt 0.562500 0.958333
vt 0.520833 0.791667
vt 0.520833 0.833333
vt 0.520833 0.875000
vt 0.520833 0.916667
vt 0.520833 0.958333
vt 0.479167 0.791667
vt 0.479167 0.833333
vt 0.479167 0.875000
vt 0.479167 0.916667
vt 0.479167 0.958333
vt 0.437500 0.791667
vt 0.437500 0.833333
vt 0.437500 0.875000
vt 0.437500 0.916667
vt 0.437500 0.958333
vt 0.395833 0.791667
vt 0.395833 0.833333
vt 0.395833 0.875000
vt 0.395833 0.916667
vt 0.395833 0.958333
vt 0.666667 0.729167
vt 0.708333 0.729167
vt 0.750000 0.729167
vt 0.791667 0.729167
vt 0.833333 0.729167
vt 0.166667 0.729167
vt 0.208333 0.729167
vt 0.250000 0.729167
vt 0.291667 0.729167
vt 0.333333 0.729167
vt 0.604167 0.791667
vt 0.604167 0.833333
vt 0.604167 0.875000
vt 0.604167 0.916667
vt 0.604167 0.958333
vt 0.604167 0.291667
vt 0.604167 0.333333
vt 0.604167 0.375000
vt 0.604167 0.416667
vt 0.604167 0.458333
vt 0.604167 0.229167
vt 0.604167 0.479167
vt 0.604167 0.729167
vt 0.604167 0.979167
vt 0.354167 0.729167
vt 0.854167 0.729167
vt 0.395833 0.979167
vt 0.437500 0.979167
vt 0.479167 0.979167
vt 0.520833 0.979167
vt 0.562500 0.979167
vt 0.395833 0.729167
vt 0.437500 0.729167
vt 0.479167 0.729167
vt 0.520833 0.729167
vt 0.562500 0.729167
vt 0.395833 0.479167
vt 0.437500 0.479167
vt 0.479167 0.479167
vt 0.520833 0.479167
vt 0.562500 0.479167
vt 0.395833 0.229167
vt 0.437500 0.229167
vt 0.479167 0.229167
vt 0.520833 0.229167
vt 0.562500 0.229167
vt 0.562500 0.020833
vt 0.562500 0.062500
vt 0.562500 0.104167
vt 0.562500 0.145833
vt 0.562500 0.187500
vt 0.520833 0.020833
vt 0.520833 0.062500
vt 0.520833 0.104167
vt 0.520833 0.145833
vt 0.520833 0.187500
vt 0.479167 0.020833
vt 0.479167 0.062500
vt 0.479167 0.104167
vt 0.479167 0.145833
vt 0.479167 0.187500
vt 0.437500 0.020833
vt 0.437500 0.062500
vt 0.437500 0.104167
vt 0.437500 0.145833
vt 0.437500 0.187500
vt 0.395833 0.020833
vt 0.395833 0.062500
vt 0.395833 0.104167
vt 0.395833 0.145833
vt 0.395833 0.187500
vt 0.562500 0.520833
vt 0.562500 0.562500
vt 0.562500 0.604167
vt 0.562500 0.645833
vt 0.562500 0.687500
vt 0.520833 0.520833
vt 0.520833 0.562500
vt 0.520833 0.604167
vt 0.520833 0.645833
vt 0.520833 0.687500
vt 0.479167 0.520833
vt 0.479167 0.562500
vt 0.479167 0.604167
vt 0.479167 0.645833
vt 0.479167 0.687500
vt 0.437500 0.520833
vt 0.437500 0.562500
vt 0.437500 0.604167
vt 0.437500 0.645833
vt 0.437500 0.687500
vt 0.395833 0.520833
vt 0.395833 0.562500
vt 0.395833 0.604167
vt 0.395833 0.645833
vt 0.395833 0.687500
vt 0.854167 0.520833
vt 0.854167 0.562500
vt 0.854167 0.604167
vt 0.854167 0.645833
vt 0.854167 0.687500
vt 0.354167 0.520833
vt 0.354167 0.562500
vt 0.354167 0.604167
vt 0.354167 0.645833
vt 0.354167 0.687500
vt 0.604167 0.520833
vt 0.604167 0.562500
vt 0.604167 0.604167
vt 0.604167 0.645833
vt 0.604167 0.687500
vt 0.604167 0.020833
vt 0.604167 0.062500
vt 0.604167 0.104167
vt 0.604167 0.145833
vt 0.604167 0.187500
vt 0.145833 0.687500
vt 0.187500 0.687500
vt 0.229167 0.687500
vt 0.270833 0.687500
vt 0.312500 0.687500
vt 0.145833 0.645833
vt 0.187500 0.645833
vt 0.229167 0.645833
vt 0.270833 0.645833
vt 0.312500 0.645833
vt 0.145833 0.604167
vt 0.187500 0.604167
vt 0.229167 0.604167
vt 0.270833 0.604167
vt 0.312500 0.604167
vt 0.145833 0.562500
vt 0.187500 0.562500
vt 0.229167 0.562500
vt 0.270833 0.562500
vt 0.312500 0.562500
vt 0.145833 0.520833
vt 0.187500 0.520833
vt 0.229167 0.520833
vt 0.270833 0.520833
vt 0.312500 0.520833
vt 0.645833 0.687500
vt 0.687500 0.687500
vt 0.729167 0.687500
vt 0.770833 0.687500
vt 0.812500 0.687500
vt 0.645833 0.645833
vt 0.687500 0.645833
vt 0.729167 0.645833
vt 0.770833 0.645833
vt 0.812500 0.645833
vt 0.645833 0.604167
vt 0.687500 0.604167
vt 0.729167 0.604167
vt 0.770833 0.604167
vt 0.812500 0.604167
vt 0.645833 0.562500
vt 0.687500 0.562500
vt 0.729167 0.562500
vt 0.770833 0.562500
vt 0.812500 0.562500
vt 0.645833 0.520833
vt 0.687500 0.520833
vt 0.729167 0.520833
vt 0.770833 0.520833
vt 0.812500 0.520833
vt 0.562500 0.270833
vt 0.562500 0.312500
vt 0.562500 0.354167
vt 0.562500 0.395833
vt 0.562500 0.437500
vt 0.520833 0.270833
vt 0.520833 0.312500
vt 0.520833 0.354167
vt 0.520833 0.395833
vt 0.520833 0.437500
vt 0.479167 0.270833
vt 0.479167 0.312500
vt 0.479167 0.354167
vt 0.479167 0.395833
vt 0.479167 0.437500
vt 0.437500 0.270833
vt 0.437500 0.312500
vt 0.437500 0.354167
vt 0.437500 0.395833
vt 0.437500 0.437500
vt 0.395833 0.270833
vt 0.395833 0.312500
vt 0.395833 0.354167
vt 0.395833 0.395833
vt 0.395833 0.437500
vt 0.562500 0.770833
vt 0.562500 0.812500
vt 0.562500 0.854167
vt 0.562500 0.895833
vt 0.562500 0.937500
vt 0.520833 0.770833
vt 0.520833 0.812500
vt 0.520833 0.854167
vt 0.520833 0.895833
vt 0.520833 0.937500
vt 0.479167 0.770833
vt 0.479167 0.812500
vt 0.479167 0.854167
vt 0.479167 0.895833
vt 0.479167 0.937500
vt 0.437500 0.770833
vt 0.437500 0.812500
vt 0.437500 0.854167
vt 0.437500 0.895833
vt 0.437500 0.937500
vt 0.395833 0.770833
vt 0.395833 0.812500
vt 0.395833 0.854167
vt 0.395833 0.895833
vt 0.395833 0.937500
vt 0.645833 0.729167
vt 0.687500 0.729167
vt 0.729167 0.729167
vt 0.770833 0.729167
vt 0.812500 0.729167
vt 0.145833 0.729167
vt 0.187500 0.729167
vt 0.229167 0.729167
vt 0.270833 0.729167
vt 0.312500 0.729167
vt 0.604167 0.770833
vt 0.604167 0.812500
vt 0.604167 0.854167
vt 0.604167 0.895833
vt 0.604167 0.937500
vt 0.604167 0.270833
vt 0.604167 0.312500
vt 0.604167 0.354167
vt 0.604167 0.395833
vt 0.604167 0.437500
s 0
f 98/119/1 410/473/1 651/734/1 270/323/1
f 410/473/2 38/59/2 221/264/2 651/734/2
f 651/734/3 221/264/3 4/10/3 236/289/3
f 270/323/4 651/734/4 236/289/4 14/25/4
f 168/209/5 650/733/5 652/735/5 265/318/5
f 650/733/6 108/139/6 224/269/6 652/735/6
f 652/735/7 224/269/7 8/14/7 241/294/7
f 265/318/8 652/735/8 241/294/8 19/30/8
f 73/94/9 405/468/9 653/736/9 260/313/9
f 405/468/10 48/69/10 227/273/10 653/736/10
f 653/736/11 227/273/11 6/12/11 246/299/11
f 260/313/12 653/736/12 246/299/12 24/35/12
f 143/184/13 645/728/13 654/737/13 255/308/13
f 645/728/14 118/159/14 230/277/14 654/737/14
f 654/737/15 230/277/15 2/4/15 220/262/15
f 255/308/16 654/737/16 220/262/16 13/23/16
f 214/255/17 526/609/17 655/738/17 640/723/17
f 526/609/18 39/60/18 281/344/18 655/738/18
f 655/738/19 281/344/19 5/11/19 229/275/19
f 640/723/20 655/738/20 229/275/20 113/149/20
f 189/230/21 501/584/21 656/739/21 635/718/21
f 501/584/22 34/50/22 276/334/22 656/739/22
f 656/739/23 276/334/23 2/5/23 230/278/23
f 635/718/24 656/739/24 230/278/24 118/158/24
f 109/140/25 630/713/25 657/740/25 421/494/25
f 630/713/26 123/164/26 251/304/26 657/740/26
f 657/740/27 251/304/27 9/15/27 231/279/27
f 421/494/28 657/740/28 231/279/28 1/1/28
f 123/164/29 625/708/29 658/741/29 251/304/29
f 625/708/29 128/169/29 252/305/29 658/741/29
f 658/741/30 252/305/30 10/17/30 232/281/30
f 251/304/30 658/741/30 232/281/30 9/15/30
f 128/169/29 620/703/29 659/742/29 252/305/29
f 620/703/29 133/174/29 253/306/29 659/742/29
f 659/742/30 253/306/30 11/19/30 233/283/30
f 252/305/30 659/742/30 233/283/30 10/17/30
f 133/174/29 615/698/29 660/743/29 253/306/29
f 615/698/29 138/179/29 254/307/29 660/743/29
f 660/743/30 254/307/30 12/21/30 234/285/30
f 253/306/30 660/743/30 234/285/30 11/19/30
f 138/179/29 610/693/29 661/744/29 254/307/29
f 610/693/29 143/184/29 255/308/29 661/744/29
f 661/744/30 255/308/30 13/23/30 235/287/30
f 254/307/30 661/744/30 235/287/30 12/21/30
f 39/60/31 390/453/31 662/745/31 281/344/31
f 390/453/32 53/74/32 256/309/32 662/745/32
f 662/745/33 256/309/33 28/39/33 228/274/33
f 281/344/34 662/745/34 228/274/34 5/11/34
f 53/74/35 385/448/35 663/746/35 256/309/35
f 385/448/35 58/79/35 257/310/35 663/746/35
f 663/746/36 257/310/36 27/38/36 250/303/36
f 256/309/36 663/746/36 250/303/36 28/39/36
f 58/79/35 380/443/35 664/747/35 257/310/35
f 380/443/35 63/84/35 258/311/35 664/747/35
f 664/747/36 258/311/36 26/37/36 249/302/36
f 257/310/36 664/747/36 249/302/36 27/38/36
f 63/84/35 375/438/35 665/748/35 258/311/35
f 375/438/35 68/89/35 259/312/35 665/748/35
f 665/748/36 259/312/36 25/36/36 248/301/36
f 258/311/36 665/748/36 248/301/36 26/37/36
f 68/89/35 370/433/35 666/749/35 259/312/35
f 370/433/35 73/94/35 260/313/35 666/749/35
f 666/749/36 260/313/36 24/35/36 247/300/36
f 259/312/36 666/749/36 247/300/36 25/36/36
f 99/121/37 605/688/37 667/750/37 411/474/37
f 605/688/38 148/189/38 261/314/38 667/750/38
f 667/750/39 261/314/39 23/34/39 225/271/39
f 411/474/40 667/750/40 225/271/40 7/13/40
f 148/189/41 600/683/41 668/751/41 261/314/41
f 600/683/41 153/194/41 262/315/41 668/751/41
f 668/751/42 262/315/42 22/33/42 245/298/42
f 261/314/42 668/751/42 245/298/42 23/34/42
f 153/194/41 595/678/41 669/752/41 262/315/41
f 595/678/41 158/199/41 263/316/41 669/752/41
f 669/752/42 263/316/42 21/32/42 244/297/42
f 262/315/42 669/752/42 244/297/42 22/33/42
f 158/199/41 590/673/41 670/753/41 263/316/41
f 590/673/41 163/204/41 264/317/41 670/753/41
f 670/753/42 264/317/42 20/31/42 243/296/42
f 263/316/42 670/753/42 243/296/42 21/32/42
f 163/204/41 585/668/41 671/754/41 264/317/41
f 585/668/41 168/209/41 265/318/41 671/754/41
f 671/754/42 265/318/42 19/30/42 242/295/42
f 264/317/42 671/754/42 242/295/42 20/31/42
f 29/40/43 365/428/43 672/755/43 271/324/43
f 365/428/44 78/99/44 266/319/44 672/755/44
f 672/755/45 266/319/45 18/29/45 222/266/45
f 271/324/46 672/755/46 222/266/46 3/8/46
f 78/99/47 360/423/47 673/756/47 266/319/47
f 360/423/47 83/104/47 267/320/47 673/756/47
f 673/756/48 267/320/48 17/28/48 240/293/48
f 266/319/48 673/756/48 240/293/48 18/29/48
f 83/104/47 355/418/47 674/757/47 267/320/47
f 355/418/47 88/109/47 268/321/47 674/757/47
f 674/757/48 268/321/48 16/27/48 239/292/48
f 267/320/48 674/757/48 239/292/48 17/28/48
f 88/109/47 350/413/47 675/758/47 268/321/47
f 350/413/47 93/114/47 269/322/47 675/758/47
f 675/758/48 269/322/48 15/26/48 238/291/48
f 268/321/48 675/758/48 238/291/48 16/27/48
f 93/114/47 345/408/47 676/759/47 269/322/47
f 345/408/47 98/119/47 270/323/47 676/759/47
f 676/759/48 270/323/48 14/25/48 237/290/48
f 269/322/48 676/759/48 237/290/48 15/26/48
f 12/22/49 235/288/49 677/760/49 331/394/49
f 235/288/49 13/24/49 336/399/49 677/760/49
f 677/760/50 336/399/50 94/115/50 341/404/50
f 331/394/50 677/760/50 341/404/50 89/110/50
f 89/110/51 341/404/51 678/761/51 332/395/51
f 341/404/51 94/115/51 337/400/51 678/761/51
f 678/761/51 337/400/51 95/116/51 342/405/51
f 332/395/51 678/761/51 342/405/51 90/111/51
f 90/111/51 342/405/51 679/762/51 333/396/51
f 342/405/51 95/116/51 338/401/51 679/762/51
f 679/762/51 338/401/51 96/117/51 343/406/51
f 333/396/51 679/762/51 343/406/51 91/112/51
f 91/112/51 343/406/51 680/763/51 334/397/51
f 343/406/51 96/117/51 339/402/51 680/763/51
f 680/763/51 339/402/51 97/118/51 344/407/51
f 334/397/51 680/763/51 344/407/51 92/113/51
f 92/113/51 344/407/51 681/764/51 335/398/51
f 344/407/51 97/118/51 340/403/51 681/764/51
f 681/764/51 340/403/51 98/119/51 345/408/51
f 335/398/51 681/764/51 345/408/51 93/114/51
f 11/20/49 234/286/49 682/765/49 326/389/49
f 234/286/49 12/22/49 331/394/49 682/765/49
f 682/765/50 331/394/50 89/110/50 346/409/50
f 326/389/50 682/765/50 346/409/50 84/105/50
f 84/105/51 346/409/51 683/766/51 327/390/51
f 346/409/51 89/110/51 332/395/51 683/766/51
f 683/766/51 332/395/51 90/111/51 347/410/51
f 327/390/51 683/766/51 347/410/51 85/106/51
f 85/106/51 347/410/51 684/767/51 328/391/51
f 347/410/51 90/111/51 333/396/51 684/767/51
f 684/767/51 333/396/51 91/112/51 348/411/51
f 328/391/51 684/767/51 348/411/51 86/107/51
f 86/107/51 348/411/51 685/768/51 329/392/51
f 348/411/51 91/112/51 334/397/51 685/768/51
f 685/768/51 334/397/51 92/113/51 349/412/51
f 329/392/51 685/768/51 349/412/51 87/108/51
f 87/108/51 349/412/51 686/769/51 330/393/51
f 349/412/51 92/113/51 335/398/51 686/769/51
f 686/769/51 335/398/51 93/114/51 350/413/51
f 330/393/51 686/769/51 350/413/51 88/109/51
f 10/18/49 233/284/49 687/770/49 321/384/49
f 233/284/49 11/20/49 326/389/49 687/770/49
f 687/770/50 326/389/50 84/105/50 351/414/50
f 321/384/50 687/770/50 351/414/50 79/100/50
f 79/100/51 351/414/51 688/771/51 322/385/51
f 351/414/51 84/105/51 327/390/51 688/771/51
f 688/771/51 327/390/51 85/106/51 352/415/51
f 322/385/51 688/771/51 352/415/51 80/101/51
f 80/101/51 352/415/51 689/772/51 323/386/51
f 352/415/51 85/106/51 328/391/51 689/772/51
f 689/772/51 328/391/51 86/107/51 353/416/51
f 323/386/51 689/772/51 353/416/51 81/102/51
f 81/102/51 353/416/51 690/773/51 324/387/51
f 353/416/51 86/107/51 329/392/51 690/773/51
f 690/773/51 329/392/51 87/108/51 354/417/51
f 324/387/51 690/773/51 354/417/51 82/103/51
f 82/103/51 354/417/51 691/774/51 325/388/51
f 354/417/51 87/108/51 330/393/51 691/774/51
f 691/774/51 330/393/51 88/109/51 355/418/51
f 325/388/51 691/774/51 355/418/51 83/104/51
f 9/16/49 232/282/49 692/775/49 316/379/49
f 232/282/49 10/18/49 321/384/49 692/775/49
f 692/775/50 321/384/50 79/100/50 356/419/50
f 316/379/50 692/775/50 356/419/50 74/95/50
f 74/95/51 356/419/51 693/776/51 317/380/51
f 356/419/51 79/100/51 322/385/51 693/776/51
f 693/776/51 322/385/51 80/101/51 357/420/51
f 317/380/51 693/776/51 357/420/51 75/96/51
f 75/96/51 357/420/51 694/777/51 318/381/51
f 357/420/51 80/101/51 323/386/51 694/777/51
f 694/777/51 323/386/51 81/102/51 358/421/51
f 318/381/51 694/777/51 358/421/51 76/97/51
f 76/97/51 358/421/51 695/778/51 319/382/51
f 358/421/51 81/102/51 324/387/51 695/778/51
f 695/778/51 324/387/51 82/103/51 359/422/51
f 319/382/51 695/778/51 359/422/51 77/98/51
f 77/98/51 359/422/51 696/779/51 320/383/51
f 359/422/51 82/103/51 325/388/51 696/779/51
f 696/779/51 325/388/51 83/104/51 360/423/51
f 320/383/51 696/779/51 360/423/51 78/99/51
f 1/2/52 231/280/52 697/780/52 219/260/52
f 231/280/53 9/16/53 316/379/53 697/780/53
f 697/780/54 316/379/54 74/95/54 361/424/54
f 219/260/55 697/780/55 361/424/55 33/48/55
f 33/48/56 361/424/56 698/781/56 275/332/56
f 361/424/57 74/95/57 317/380/57 698/781/57
f 698/781/57 317/380/57 75/96/57 362/425/57
f 275/332/56 698/781/56 362/425/56 32/46/56
f 32/46/56 362/425/56 699/782/56 274/330/56
f 362/425/57 75/96/57 318/381/57 699/782/57
f 699/782/57 318/381/57 76/97/57 363/426/57
f 274/330/56 699/782/56 363/426/56 31/44/56
f 31/44/56 363/426/56 700/783/56 273/328/56
f 363/426/57 76/97/57 319/382/57 700/783/57
f 700/783/57 319/382/57 77/98/57 364/427/57
f 273/328/56 700/783/56 364/427/56 30/42/56
f 30/42/56 364/427/56 701/784/56 272/326/56
f 364/427/57 77/98/57 320/383/57 701/784/57
f 701/784/57 320/383/57 78/99/57 365/428/57
f 272/326/56 701/784/56 365/428/56 29/40/56
f 20/31/58 242/295/58 702/785/58 306/369/58
f 242/295/58 19/30/58 311/374/58 702/785/58
f 702/785/59 311/374/59 69/90/59 366/429/59
f 306/369/59 702/785/59 366/429/59 64/85/59
f 64/85/60 366/429/60 703/786/60 307/370/60
f 366/429/60 69/90/60 312/375/60 703/786/60
f 703/786/60 312/375/60 70/91/60 367/430/60
f 307/370/60 703/786/60 367/430/60 65/86/60
f 65/86/60 367/430/60 704/787/60 308/371/60
f 367/430/60 70/91/60 313/376/60 704/787/60
f 704/787/60 313/376/60 71/92/60 368/431/60
f 308/371/60 704/787/60 368/431/60 66/87/60
f 66/87/60 368/431/60 705/788/60 309/372/60
f 368/431/60 71/92/60 314/377/60 705/788/60
f 705/788/60 314/377/60 72/93/60 369/432/60
f 309/372/60 705/788/60 369/432/60 67/88/60
f 67/88/60 369/432/60 706/789/60 310/373/60
f 369/432/60 72/93/60 315/378/60 706/789/60
f 706/789/60 315/378/60 73/94/60 370/433/60
f 310/373/60 706/789/60 370/433/60 68/89/60
f 21/32/58 243/296/58 707/790/58 301/364/58
f 243/296/58 20/31/58 306/369/58 707/790/58
f 707/790/59 306/369/59 64/85/59 371/434/59
f 301/364/59 707/790/59 371/434/59 59/80/59
f 59/80/60 371/434/60 708/791/60 302/365/60
f 371/434/60 64/85/60 307/370/60 708/791/60
f 708/791/60 307/370/60 65/86/60 372/435/60
f 302/365/60 708/791/60 372/435/60 60/81/60
f 60/81/60 372/435/60 709/792/60 303/366/60
f 372/435/60 65/86/60 308/371/60 709/792/60
f 709/792/60 308/371/60 66/87/60 373/436/60
f 303/366/60 709/792/60 373/436/60 61/82/60
f 61/82/60 373/436/60 710/793/60 304/367/60
f 373/436/60 66/87/60 309/372/60 710/793/60
f 710/793/60 309/372/60 67/88/60 374/437/60
f 304/367/60 710/793/60 374/437/60 62/83/60
f 62/83/60 374/437/60 711/794/60 305/368/60
f 374/437/60 67/88/60 310/373/60 711/794/60
f 711/794/60 310/373/60 68/89/60 375/438/60
f 305/368/60 711/794/60 375/438/60 63/84/60
f 22/33/58 244/297/58 712/795/58 296/359/58
f 244/297/61 21/32/61 301/364/61 712/795/61
f 712/795/59 301/364/59 59/80/59 376/439/59
f 296/359/59 712/795/59 376/439/59 54/75/59
f 54/75/60 376/439/60 713/796/60 297/360/60
f 376/439/60 59/80/60 302/365/60 713/796/60
f 713/796/60 302/365/60 60/81/60 377/440/60
f 297/360/60 713/796/60 377/440/60 55/76/60
f 55/76/60 377/440/60 714/797/60 298/361/60
f 377/440/60 60/81/60 303/366/60 714/797/60
f 714/797/60 303/366/60 61/82/60 378/441/60
f 298/361/60 714/797/60 378/441/60 56/77/60
f 56/77/60 378/441/60 715/798/60 299/362/60
f 378/441/60 61/82/60 304/367/60 715/798/60
f 715/798/60 304/367/60 62/83/60 379/442/60
f 299/362/60 715/798/60 379/442/60 57/78/60
f 57/78/60 379/442/60 716/799/60 300/363/60
f 379/442/60 62/83/60 305/368/60 716/799/60
f 716/799/60 305/368/60 63/84/60 380/443/60
f 300/363/60 716/799/60 380/443/60 58/79/60
f 23/34/58 245/298/58 717/800/58 291/354/58
f 245/298/58 22/33/58 296/359/58 717/800/58
f 717/800/59 296/359/59 54/75/59 381/444/59
f 291/354/59 717/800/59 381/444/59 49/70/59
f 49/70/60 381/444/60 718/801/60 292/355/60
f 381/444/60 54/75/60 297/360/60 718/801/60
f 718/801/60 297/360/60 55/76/60 382/445/60
f 292/355/60 718/801/60 382/445/60 50/71/60
f 50/71/60 382/445/60 719/802/60 293/356/60
f 382/445/60 55/76/60 298/361/60 719/802/60
f 719/802/60 298/361/60 56/77/60 383/446/60
f 293/356/60 719/802/60 383/446/60 51/72/60
f 51/72/60 383/446/60 720/803/60 294/357/60
f 383/446/60 56/77/60 299/362/60 720/803/60
f 720/803/60 299/362/60 57/78/60 384/447/60
f 294/357/60 720/803/60 384/447/60 52/73/60
f 52/73/60 384/447/60 721/804/60 295/358/60
f 384/447/60 57/78/60 300/363/60 721/804/60
f 721/804/60 300/363/60 58/79/60 385/448/60
f 295/358/60 721/804/60 385/448/60 53/74/60
f 7/13/62 225/271/62 722/805/62 226/272/62
f 225/271/63 23/34/63 291/354/63 722/805/63
f 722/805/64 291/354/64 49/70/64 386/449/64
f 226/272/65 722/805/65 386/449/65 43/64/65
f 43/64/66 386/449/66 723/806/66 285/348/66
f 386/449/67 49/70/67 292/355/67 723/806/67
f 723/806/67 292/355/67 50/71/67 387/450/67
f 285/348/66 723/806/66 387/450/66 42/63/66
f 42/63/66 387/450/66 724/807/66 284/347/66
f 387/450/67 50/71/67 293/356/67 724/807/67
f 724/807/67 293/356/67 51/72/67 388/451/67
f 284/347/66 724/807/66 388/451/66 41/62/66
f 41/62/66 388/451/66 725/808/66 283/346/66
f 388/451/67 51/72/67 294/357/67 725/808/67
f 725/808/67 294/357/67 52/73/67 389/452/67
f 283/346/66 725/808/66 389/452/66 40/61/66
f 40/61/66 389/452/66 726/809/66 282/345/66
f 389/452/67 52/73/67 295/358/67 726/809/67
f 726/809/67 295/358/67 53/74/67 390/453/67
f 282/345/66 726/809/66 390/453/66 39/60/66
f 104/130/68 416/484/68 727/810/68 580/663/68
f 416/484/69 4/9/69 221/265/69 727/810/69
f 727/810/70 221/265/70 38/58/70 481/564/70
f 580/663/71 727/810/71 481/564/71 169/210/71
f 169/210/72 481/564/72 728/811/72 575/658/72
f 481/564/73 38/58/73 280/342/73 728/811/73
f 728/811/73 280/342/73 37/56/73 486/569/73
f 575/658/72 728/811/72 486/569/72 174/215/72
f 174/215/72 486/569/72 729/812/72 570/653/72
f 486/569/73 37/56/73 279/340/73 729/812/73
f 729/812/73 279/340/73 36/54/73 491/574/73
f 570/653/72 729/812/72 491/574/72 179/220/72
f 179/220/72 491/574/72 730/813/72 565/648/72
f 491/574/73 36/54/73 278/338/73 730/813/73
f 730/813/73 278/338/73 35/52/73 496/579/73
f 565/648/72 730/813/72 496/579/72 184/225/72
f 184/225/72 496/579/72 731/814/72 560/643/72
f 496/579/73 35/52/73 277/336/73 731/814/73
f 731/814/73 277/336/73 34/50/73 501/584/73
f 560/643/72 731/814/72 501/584/72 189/230/72
f 99/120/74 411/475/74 732/815/74 555/638/74
f 411/475/75 7/13/75 226/272/75 732/815/75
f 732/815/76 226/272/76 43/64/76 506/589/76
f 555/638/77 732/815/77 506/589/77 194/235/77
f 194/235/78 506/589/78 733/816/78 550/633/78
f 506/589/79 43/64/79 285/348/79 733/816/79
f 733/816/80 285/348/80 42/63/80 511/594/80
f 550/633/78 733/816/78 511/594/78 199/240/78
f 199/240/78 511/594/78 734/817/78 545/628/78
f 511/594/80 42/63/80 284/347/80 734/817/80
f 734/817/80 284/347/80 41/62/80 516/599/80
f 545/628/78 734/817/78 516/599/78 204/245/78
f 204/245/78 516/599/78 735/818/78 540/623/78
f 516/599/80 41/62/80 283/346/80 735/818/80
f 735/818/80 283/346/80 40/61/80 521/604/80
f 540/623/78 735/818/78 521/604/78 209/250/78
f 209/250/78 521/604/78 736/819/78 535/618/78
f 521/604/80 40/61/80 282/345/80 736/819/80
f 736/819/80 282/345/80 39/60/80 526/609/80
f 535/618/78 736/819/78 526/609/78 214/255/78
f 19/30/81 241/294/81 737/820/81 311/374/81
f 241/294/82 8/14/82 286/349/82 737/820/82
f 737/820/83 286/349/83 44/65/83 401/464/83
f 311/374/84 737/820/84 401/464/84 69/90/84
f 69/90/85 401/464/85 738/821/85 312/375/85
f 401/464/86 44/65/86 287/350/86 738/821/86
f 738/821/86 287/350/86 45/66/86 402/465/86
f 312/375/85 738/821/85 402/465/85 70/91/85
f 70/91/85 402/465/85 739/822/85 313/376/85
f 402/465/86 45/66/86 288/351/86 739/822/86
f 739/822/86 288/351/86 46/67/86 403/466/86
f 313/376/85 739/822/85 403/466/85 71/92/85
f 71/92/85 403/466/85 740/823/85 314/377/85
f 403/466/86 46/67/86 289/352/86 740/823/86
f 740/823/86 289/352/86 47/68/86 404/467/86
f 314/377/85 740/823/85 404/467/85 72/93/85
f 72/93/85 404/467/85 741/824/85 315/378/85
f 404/467/86 47/68/86 290/353/86 741/824/86
f 741/824/86 290/353/86 48/69/86 405/468/86
f 315/378/85 741/824/85 405/468/85 73/94/85
f 13/24/87 220/263/87 742/825/87 336/399/87
f 220/263/88 2/6/88 276/335/88 742/825/88
f 742/825/89 276/335/89 34/51/89 406/469/89
f 336/399/90 742/825/90 406/469/90 94/115/90
f 94/115/91 406/469/91 743/826/91 337/400/91
f 406/469/92 34/51/92 277/337/92 743/826/92
f 743/826/92 277/337/92 35/53/92 407/470/92
f 337/400/91 743/826/91 407/470/91 95/116/91
f 95/116/91 407/470/91 744/827/91 338/401/91
f 407/470/92 35/53/92 278/339/92 744/827/92
f 744/827/92 278/339/92 36/55/92 408/471/92
f 338/401/91 744/827/91 408/471/91 96/117/91
f 96/117/91 408/471/91 745/828/91 339/402/91
f 408/471/92 36/55/92 279/341/92 745/828/92
f 745/828/92 279/341/92 37/57/92 409/472/92
f 339/402/91 745/828/91 409/472/91 97/118/91
f 97/118/91 409/472/91 746/829/91 340/403/91
f 409/472/92 37/57/92 280/343/92 746/829/92
f 746/829/92 280/343/92 38/59/92 410/473/92
f 340/403/91 746/829/91 410/473/91 98/119/91
f 32/47/93 399/462/93 747/830/93 275/333/93
f 399/462/94 213/254/94 531/614/94 747/830/94
f 747/830/94 531/614/94 218/259/94 400/463/94
f 275/333/93 747/830/93 400/463/93 33/49/93
f 213/254/95 525/608/95 748/831/95 531/614/95
f 525/608/95 212/253/95 532/615/95 748/831/95
f 748/831/95 532/615/95 217/258/95 530/613/95
f 531/614/95 748/831/95 530/613/95 218/259/95
f 212/253/95 524/607/95 749/832/95 532/615/95
f 524/607/95 211/252/95 533/616/95 749/832/95
f 749/832/95 533/616/95 216/257/95 529/612/95
f 532/615/95 749/832/95 529/612/95 217/258/95
f 211/252/95 523/606/95 750/833/95 533/616/95
f 523/606/95 210/251/95 534/617/95 750/833/95
f 750/833/95 534/617/95 215/256/95 528/611/95
f 533/616/95 750/833/95 528/611/95 216/257/95
f 210/251/95 522/605/95 751/834/95 534/617/95
f 522/605/95 209/250/95 535/618/95 751/834/95
f 751/834/95 535/618/95 214/255/95 527/610/95
f 534/617/95 751/834/95 527/610/95 215/256/95
f 31/45/93 398/461/93 752/835/93 274/331/93
f 398/461/94 208/249/94 536/619/94 752/835/94
f 752/835/94 536/619/94 213/254/94 399/462/94
f 274/331/93 752/835/93 399/462/93 32/47/93
f 208/249/95 520/603/95 753/836/95 536/619/95
f 520/603/95 207/248/95 537/620/95 753/836/95
f 753/836/95 537/620/95 212/253/95 525/608/95
f 536/619/95 753/836/95 525/608/95 213/254/95
f 207/248/95 519/602/95 754/837/95 537/620/95
f 519/602/95 206/247/95 538/621/95 754/837/95
f 754/837/95 538/621/95 211/252/95 524/607/95
f 537/620/95 754/837/95 524/607/95 212/253/95
f 206/247/95 518/601/95 755/838/95 538/621/95
f 518/601/95 205/246/95 539/622/95 755/838/95
f 755/838/95 539/622/95 210/251/95 523/606/95
f 538/621/95 755/838/95 523/606/95 211/252/95
f 205/246/95 517/600/95 756/839/95 539/622/95
f 517/600/95 204/245/95 540/623/95 756/839/95
f 756/839/95 540/623/95 209/250/95 522/605/95
f 539/622/95 756/839/95 522/605/95 210/251/95
f 30/43/93 397/460/93 757/840/93 273/329/93
f 397/460/94 203/244/94 541/624/94 757/840/94
f 757/840/94 541/624/94 208/249/94 398/461/94
f 273/329/93 757/840/93 398/461/93 31/45/93
f 203/244/95 515/598/95 758/841/95 541/624/95
f 515/598/95 202/243/95 542/625/95 758/841/95
f 758/841/95 542/625/95 207/248/95 520/603/95
f 541/624/95 758/841/95 520/603/95 208/249/95
f 202/243/95 514/597/95 759/842/95 542/625/95
f 514/597/95 201/242/95 543/626/95 759/842/95
f 759/842/95 543/626/95 206/247/95 519/602/95
f 542/625/95 759/842/95 519/602/95 207/248/95
f 201/242/95 513/596/95 760/843/95 543/626/95
f 513/596/95 200/241/95 544/627/95 760/843/95
f 760/843/95 544/627/95 205/246/95 518/601/95
f 543/626/95 760/843/95 518/601/95 206/247/95
f 200/241/95 512/595/95 761/844/95 544/627/95
f 512/595/95 199/240/95 545/628/95 761/844/95
f 761/844/95 545/628/95 204/245/95 517/600/95
f 544/627/95 761/844/95 517/600/95 205/246/95
f 29/41/93 396/459/93 762/845/93 272/327/93
f 396/459/94 198/239/94 546/629/94 762/845/94
f 762/845/94 546/629/94 203/244/94 397/460/94
f 272/327/93 762/845/93 397/460/93 30/43/93
f 198/239/95 510/593/95 763/846/95 546/629/95
f 510/593/95 197/238/95 547/630/95 763/846/95
f 763/846/95 547/630/95 202/243/95 515/598/95
f 546/629/95 763/846/95 515/598/95 203/244/95
f 197/238/95 509/592/95 764/847/95 547/630/95
f 509/592/95 196/237/95 548/631/95 764/847/95
f 764/847/95 548/631/95 201/242/95 514/597/95
f 547/630/95 764/847/95 514/597/95 202/243/95
f 196/237/95 508/591/95 765/848/95 548/631/95
f 508/591/95 195/236/95 549/632/95 765/848/95
f 765/848/95 549/632/95 200/241/95 513/596/95
f 548/631/95 765/848/95 513/596/95 201/242/95
f 195/236/95 507/590/95 766/849/95 549/632/95
f 507/590/95 194/235/95 550/633/95 766/849/95
f 766/849/95 550/633/95 199/240/95 512/595/95
f 549/632/95 766/849/95 512/595/95 200/241/95
f 3/7/96 223/267/96 767/850/96 271/325/96
f 223/267/97 103/128/97 551/634/97 767/850/97
f 767/850/98 551/634/98 198/239/98 396/459/98
f 271/325/99 767/850/99 396/459/99 29/41/99
f 103/128/100 415/482/100 768/851/100 551/634/100
f 415/482/100 102/126/100 552/635/100 768/851/100
f 768/851/101 552/635/101 197/238/101 510/593/101
f 551/634/101 768/851/101 510/593/101 198/239/101
f 102/126/100 414/480/100 769/852/100 552/635/100
f 414/480/100 101/124/100 553/636/100 769/852/100
f 769/852/101 553/636/101 196/237/101 509/592/101
f 552/635/101 769/852/101 509/592/101 197/238/101
f 101/124/100 413/478/100 770/853/100 553/636/100
f 413/478/100 100/122/100 554/637/100 770/853/100
f 770/853/101 554/637/101 195/236/101 508/591/101
f 553/636/101 770/853/101 508/591/101 196/237/101
f 100/122/100 412/476/100 771/854/100 554/637/100
f 412/476/100 99/120/100 555/638/100 771/854/100
f 771/854/101 555/638/101 194/235/101 507/590/101
f 554/637/101 771/854/101 507/590/101 195/236/101
f 47/68/102 394/457/102 772/855/102 290/353/102
f 394/457/103 188/229/103 556/639/103 772/855/103
f 772/855/103 556/639/103 193/234/103 395/458/103
f 290/353/102 772/855/102 395/458/102 48/69/102
f 188/229/104 500/583/104 773/856/104 556/639/104
f 500/583/104 187/228/104 557/640/104 773/856/104
f 773/856/104 557/640/104 192/233/104 505/588/104
f 556/639/104 773/856/104 505/588/104 193/234/104
f 187/228/104 499/582/104 774/857/104 557/640/104
f 499/582/104 186/227/104 558/641/104 774/857/104
f 774/857/104 558/641/104 191/232/104 504/587/104
f 557/640/104 774/857/104 504/587/104 192/233/104
f 186/227/104 498/581/104 775/858/104 558/641/104
f 498/581/104 185/226/104 559/642/104 775/858/104
f 775/858/104 559/642/104 190/231/104 503/586/104
f 558/641/104 775/858/104 503/586/104 191/232/104
f 185/226/104 497/580/104 776/859/104 559/642/104
f 497/580/104 184/225/104 560/643/104 776/859/104
f 776/859/104 560/643/104 189/230/104 502/585/104
f 559/642/104 776/859/104 502/585/104 190/231/104
f 46/67/102 393/456/102 777/860/102 289/352/102
f 393/456/103 183/224/103 561/644/103 777/860/103
f 777/860/103 561/644/103 188/229/103 394/457/103
f 289/352/102 777/860/102 394/457/102 47/68/102
f 183/224/104 495/578/104 778/861/104 561/644/104
f 495/578/104 182/223/104 562/645/104 778/861/104
f 778/861/104 562/645/104 187/228/104 500/583/104
f 561/644/104 778/861/104 500/583/104 188/229/104
f 182/223/104 494/577/104 779/862/104 562/645/104
f 494/577/104 181/222/104 563/646/104 779/862/104
f 779/862/104 563/646/104 186/227/104 499/582/104
f 562/645/104 779/862/104 499/582/104 187/228/104
f 181/222/104 493/576/104 780/863/104 563/646/104
f 493/576/104 180/221/104 564/647/104 780/863/104
f 780/863/104 564/647/104 185/226/104 498/581/104
f 563/646/104 780/863/104 498/581/104 186/227/104
f 180/221/104 492/575/104 781/864/104 564/647/104
f 492/575/104 179/220/104 565/648/104 781/864/104
f 781/864/104 565/648/104 184/225/104 497/580/104
f 564/647/104 781/864/104 497/580/104 185/226/104
f 45/66/102 392/455/102 782/865/102 288/351/102
f 392/455/103 178/219/103 566/649/103 782/865/103
f 782/865/103 566/649/103 183/224/103 393/456/103
f 288/351/102 782/865/102 393/456/102 46/67/102
f 178/219/104 490/573/104 783/866/104 566/649/104
f 490/573/104 177/218/104 567/650/104 783/866/104
f 783/866/104 567/650/104 182/223/104 495/578/104
f 566/649/104 783/866/104 495/578/104 183/224/104
f 177/218/104 489/572/104 784/867/104 567/650/104
f 489/572/104 176/217/104 568/651/104 784/867/104
f 784/867/104 568/651/104 181/222/104 494/577/104
f 567/650/104 784/867/104 494/577/104 182/223/104
f 176/217/104 488/571/104 785/868/104 568/651/104
f 488/571/104 175/216/104 569/652/104 785/868/104
f 785/868/104 569/652/104 180/221/104 493/576/104
f 568/651/104 785/868/104 493/576/104 181/222/104
f 175/216/104 487/570/104 786/869/104 569/652/104
f 487/570/104 174/215/104 570/653/104 786/869/104
f 786/869/104 570/653/104 179/220/104 492/575/104
f 569/652/104 786/869/104 492/575/104 180/221/104
f 44/65/102 391/454/102 787/870/102 287/350/102
f 391/454/103 173/214/103 571/654/103 787/870/103
f 787/870/103 571/654/103 178/219/103 392/455/103
f 287/350/102 787/870/102 392/455/102 45/66/102
f 173/214/104 485/568/104 788/871/104 571/654/104
f 485/568/104 172/213/104 572/655/104 788/871/104
f 788/871/104 572/655/104 177/218/104 490/573/104
f 571/654/104 788/871/104 490/573/104 178/219/104
f 172/213/104 484/567/104 789/872/104 572/655/104
f 484/567/104 171/212/104 573/656/104 789/872/104
f 789/872/104 573/656/104 176/217/104 489/572/104
f 572/655/104 789/872/104 489/572/104 177/218/104
f 171/212/104 483/566/104 790/873/104 573/656/104
f 483/566/104 170/211/104 574/657/104 790/873/104
f 790/873/104 574/657/104 175/216/104 488/571/104
f 573/656/104 790/873/104 488/571/104 176/217/104
f 170/211/104 482/565/104 791/874/104 574/657/104
f 482/565/104 169/210/104 575/658/104 791/874/104
f 791/874/104 575/658/104 174/215/104 487/570/104
f 574/657/104 791/874/104 487/570/104 175/216/104
f 8/14/105 224/270/105 792/875/105 286/349/105
f 224/270/106 108/138/106 576/659/106 792/875/106
f 792/875/107 576/659/107 173/214/107 391/454/107
f 286/349/108 792/875/108 391/454/108 44/65/108
f 108/138/109 420/492/109 793/876/109 576/659/109
f 420/492/109 107/136/109 577/660/109 793/876/109
f 793/876/110 577/660/110 172/213/110 485/568/110
f 576/659/110 793/876/110 485/568/110 173/214/110
f 107/136/109 419/490/109 794/877/109 577/660/109
f 419/490/109 106/134/109 578/661/109 794/877/109
f 794/877/110 578/661/110 171/212/110 484/567/110
f 577/660/110 794/877/110 484/567/110 172/213/110
f 106/134/109 418/488/109 795/878/109 578/661/109
f 418/488/109 105/132/109 579/662/109 795/878/109
f 795/878/110 579/662/110 170/211/110 483/566/110
f 578/661/110 795/878/110 483/566/110 171/212/110
f 105/132/109 417/486/109 796/879/109 579/662/109
f 417/486/109 104/130/109 580/663/109 796/879/109
f 796/879/110 580/663/110 169/210/110 482/565/110
f 579/662/110 796/879/110 482/565/110 170/211/110
f 15/26/111 237/290/111 797/880/111 471/554/111
f 237/290/111 14/25/111 476/559/111 797/880/111
f 797/880/112 476/559/112 164/205/112 581/664/112
f 471/554/112 797/880/112 581/664/112 159/200/112
f 159/200/113 581/664/113 798/881/113 472/555/113
f 581/664/113 164/205/113 477/560/113 798/881/113
f 798/881/113 477/560/113 165/206/113 582/665/113
f 472/555/113 798/881/113 582/665/113 160/201/113
f 160/201/113 582/665/113 799/882/113 473/556/113
f 582/665/113 165/206/113 478/561/113 799/882/113
f 799/882/113 478/561/113 166/207/113 583/666/113
f 473/556/113 799/882/113 583/666/113 161/202/113
f 161/202/113 583/666/113 800/883/113 474/557/113
f 583/666/113 166/207/113 479/562/113 800/883/113
f 800/883/113 479/562/113 167/208/113 584/667/113
f 474/557/113 800/883/113 584/667/113 162/203/113
f 162/203/113 584/667/113 801/884/113 475/558/113
f 584/667/113 167/208/113 480/563/113 801/884/113
f 801/884/113 480/563/113 168/209/113 585/668/113
f 475/558/113 801/884/113 585/668/113 163/204/113
f 16/27/114 238/291/114 802/885/114 466/549/114
f 238/291/111 15/26/111 471/554/111 802/885/111
f 802/885/112 471/554/112 159/200/112 586/669/112
f 466/549/112 802/885/112 586/669/112 154/195/112
f 154/195/113 586/669/113 803/886/113 467/550/113
f 586/669/113 159/200/113 472/555/113 803/886/113
f 803/886/113 472/555/113 160/201/113 587/670/113
f 467/550/113 803/886/113 587/670/113 155/196/113
f 155/196/113 587/670/113 804/887/113 468/551/113
f 587/670/113 160/201/113 473/556/113 804/887/113
f 804/887/113 473/556/113 161/202/113 588/671/113
f 468/551/113 804/887/113 588/671/113 156/197/113
f 156/197/113 588/671/113 805/888/113 469/552/113
f 588/671/113 161/202/113 474/557/113 805/888/113
f 805/888/113 474/557/113 162/203/113 589/672/113
f 469/552/113 805/888/113 589/672/113 157/198/113
f 157/198/113 589/672/113 806/889/113 470/553/113
f 589/672/113 162/203/113 475/558/113 806/889/113
f 806/889/113 475/558/113 163/204/113 590/673/113
f 470/553/113 806/889/113 590/673/113 158/199/113
f 17/28/111 239/292/111 807/890/111 461/544/111
f 239/292/114 16/27/114 466/549/114 807/890/114
f 807/890/112 466/549/112 154/195/112 591/674/112
f 461/544/112 807/890/112 591/674/112 149/190/112
f 149/190/113 591/674/113 808/891/113 462/545/113
f 591/674/113 154/195/113 467/550/113 808/891/113
f 808/891/113 467/550/113 155/196/113 592/675/113
f 462/545/113 808/891/113 592/675/113 150/191/113
f 150/191/113 592/675/113 809/892/113 463/546/113
f 592/675/113 155/196/113 468/551/113 809/892/113
f 809/892/113 468/551/113 156/197/113 593/676/113
f 463/546/113 809/892/113 593/676/113 151/192/113
f 151/192/113 593/676/113 810/893/113 464/547/113
f 593/676/113 156/197/113 469/552/113 810/893/113
f 810/893/113 469/552/113 157/198/113 594/677/113
f 464/547/113 810/893/113 594/677/113 152/193/113
f 152/193/113 594/677/113 811/894/113 465/548/113
f 594/677/113 157/198/113 470/553/113 811/894/113
f 811/894/113 470/553/113 158/199/113 595/678/113
f 465/548/113 811/894/113 595/678/113 153/194/113
f 18/29/111 240/293/111 812/895/111 456/539/111
f 240/293/114 17/28/114 461/544/114 812/895/114
f 812/895/112 461/544/112 149/190/112 596/679/112
f 456/539/112 812/895/112 596/679/112 144/185/112
f 144/185/113 596/679/113 813/896/113 457/540/113
f 596/679/113 149/190/113 462/545/113 813/896/113
f 813/896/113 462/545/113 150/191/113 597/680/113
f 457/540/113 813/896/113 597/680/113 145/186/113
f 145/186/113 597/680/113 814/897/113 458/541/113
f 597/680/113 150/191/113 463/546/113 814/897/113
f 814/897/113 463/546/113 151/192/113 598/681/113
f 458/541/113 814/897/113 598/681/113 146/187/113
f 146/187/113 598/681/113 815/898/113 459/542/113
f 598/681/113 151/192/113 464/547/113 815/898/113
f 815/898/113 464/547/113 152/193/113 599/682/113
f 459/542/113 815/898/113 599/682/113 147/188/113
f 147/188/113 599/682/113 816/899/113 460/543/113
f 599/682/113 152/193/113 465/548/113 816/899/113
f 816/899/113 465/548/113 153/194/113 600/683/113
f 460/543/113 816/899/113 600/683/113 148/189/113
f 3/8/115 222/266/115 817/900/115 223/268/115
f 222/266/116 18/29/116 456/539/116 817/900/116
f 817/900/117 456/539/117 144/185/117 601/684/117
f 223/268/118 817/900/118 601/684/118 103/129/118
f 103/129/119 601/684/119 818/901/119 415/483/119
f 601/684/120 144/185/120 457/540/120 818/901/120
f 818/901/120 457/540/120 145/186/120 602/685/120
f 415/483/119 818/901/119 602/685/119 102/127/119
f 102/127/119 602/685/119 819/902/119 414/481/119
f 602/685/120 145/186/120 458/541/120 819/902/120
f 819/902/120 458/541/120 146/187/120 603/686/120
f 414/481/119 819/902/119 603/686/119 101/125/119
f 101/125/119 603/686/119 820/903/119 413/479/119
f 603/686/120 146/187/120 459/542/120 820/903/120
f 820/903/120 459/542/120 147/188/120 604/687/120
f 413/479/119 820/903/119 604/687/119 100/123/119
f 100/123/119 604/687/119 821/904/119 412/477/119
f 604/687/120 147/188/120 460/543/120 821/904/120
f 821/904/120 460/543/120 148/189/120 605/688/120
f 412/477/119 821/904/119 605/688/119 99/121/119
f 25/36/121 247/300/121 822/905/121 446/529/121
f 247/300/122 24/35/122 451/534/122 822/905/122
f 822/905/123 451/534/123 139/180/123 606/689/123
f 446/529/123 822/905/123 606/689/123 134/175/123
f 134/175/124 606/689/124 823/906/124 447/530/124
f 606/689/124 139/180/124 452/535/124 823/906/124
f 823/906/124 452/535/124 140/181/124 607/690/124
f 447/530/124 823/906/124 607/690/124 135/176/124
f 135/176/124 607/690/124 824/907/124 448/531/124
f 607/690/124 140/181/124 453/536/124 824/907/124
f 824/907/124 453/536/124 141/182/124 608/691/124
f 448/531/124 824/907/124 608/691/124 136/177/124
f 136/177/124 608/691/124 825/908/124 449/532/124
f 608/691/124 141/182/124 454/537/124 825/908/124
f 825/908/124 454/537/124 142/183/124 609/692/124
f 449/532/124 825/908/124 609/692/124 137/178/124
f 137/178/124 609/692/124 826/909/124 450/533/124
f 609/692/124 142/183/124 455/538/124 826/909/124
f 826/909/124 455/538/124 143/184/124 610/693/124
f 450/533/124 826/909/124 610/693/124 138/179/124
f 26/37/121 248/301/121 827/910/121 441/524/121
f 248/301/122 25/36/122 446/529/122 827/910/122
f 827/910/123 446/529/123 134/175/123 611/694/123
f 441/524/123 827/910/123 611/694/123 129/170/123
f 129/170/124 611/694/124 828/911/124 442/525/124
f 611/694/124 134/175/124 447/530/124 828/911/124
f 828/911/124 447/530/124 135/176/124 612/695/124
f 442/525/124 828/911/124 612/695/124 130/171/124
f 130/171/124 612/695/124 829/912/124 443/526/124
f 612/695/124 135/176/124 448/531/124 829/912/124
f 829/912/124 448/531/124 136/177/124 613/696/124
f 443/526/124 829/912/124 613/696/124 131/172/124
f 131/172/124 613/696/124 830/913/124 444/527/124
f 613/696/124 136/177/124 449/532/124 830/913/124
f 830/913/124 449/532/124 137/178/124 614/697/124
f 444/527/124 830/913/124 614/697/124 132/173/124
f 132/173/124 614/697/124 831/914/124 445/528/124
f 614/697/124 137/178/124 450/533/124 831/914/124
f 831/914/124 450/533/124 138/179/124 615/698/124
f 445/528/124 831/914/124 615/698/124 133/174/124
f 27/38/122 249/302/122 832/915/122 436/519/122
f 249/302/122 26/37/122 441/524/122 832/915/122
f 832/915/123 441/524/123 129/170/123 616/699/123
f 436/519/123 832/915/123 616/699/123 124/165/123
f 124/165/124 616/699/124 833/916/124 437/520/124
f 616/699/124 129/170/124 442/525/124 833/916/124
f 833/916/124 442/525/124 130/171/124 617/700/124
f 437/520/124 833/916/124 617/700/124 125/166/124
f 125/166/124 617/700/124 834/917/124 438/521/124
f 617/700/124 130/171/124 443/526/124 834/917/124
f 834/917/124 443/526/124 131/172/124 618/701/124
f 438/521/124 834/917/124 618/701/124 126/167/124
f 126/167/124 618/701/124 835/918/124 439/522/124
f 618/701/124 131/172/124 444/527/124 835/918/124
f 835/918/124 444/527/124 132/173/124 619/702/124
f 439/522/124 835/918/124 619/702/124 127/168/124
f 127/168/124 619/702/124 836/919/124 440/523/124
f 619/702/124 132/173/124 445/528/124 836/919/124
f 836/919/124 445/528/124 133/174/124 620/703/124
f 440/523/124 836/919/124 620/703/124 128/169/124
f 28/39/122 250/303/122 837/920/122 431/514/122
f 250/303/121 27/38/121 436/519/121 837/920/121
f 837/920/123 436/519/123 124/165/123 621/704/123
f 431/514/123 837/920/123 621/704/123 119/160/123
f 119/160/124 621/704/124 838/921/124 432/515/124
f 621/704/124 124/165/124 437/520/124 838/921/124
f 838/921/124 437/520/124 125/166/124 622/705/124
f 432/515/124 838/921/124 622/705/124 120/161/124
f 120/161/124 622/705/124 839/922/124 433/516/124
f 622/705/124 125/166/124 438/521/124 839/922/124
f 839/922/124 438/521/124 126/167/124 623/706/124
f 433/516/124 839/922/124 623/706/124 121/162/124
f 121/162/124 623/706/124 840/923/124 434/517/124
f 623/706/124 126/167/124 439/522/124 840/923/124
f 840/923/124 439/522/124 127/168/124 624/707/124
f 434/517/124 840/923/124 624/707/124 122/163/124
f 122/163/124 624/707/124 841/924/124 435/518/124
f 624/707/124 127/168/124 440/523/124 841/924/124
f 841/924/124 440/523/124 128/169/124 625/708/124
f 435/518/124 841/924/124 625/708/124 123/164/124
f 5/11/125 228/274/125 842/925/125 229/276/125
f 228/274/126 28/39/126 431/514/126 842/925/126
f 842/925/127 431/514/127 119/160/127 626/709/127
f 229/276/128 842/925/128 626/709/128 113/148/128
f 113/148/129 626/709/129 843/926/129 425/502/129
f 626/709/130 119/160/130 432/515/130 843/926/130
f 843/926/130 432/515/130 120/161/130 627/710/130
f 425/502/131 843/926/131 627/710/131 112/146/131
f 112/146/129 627/710/129 844/927/129 424/500/129
f 627/710/130 120/161/130 433/516/130 844/927/130
f 844/927/130 433/516/130 121/162/130 628/711/130
f 424/500/129 844/927/129 628/711/129 111/144/129
f 111/144/129 628/711/129 845/928/129 423/498/129
f 628/711/130 121/162/130 434/517/130 845/928/130
f 845/928/130 434/517/130 122/163/130 629/712/130
f 423/498/129 845/928/129 629/712/129 110/142/129
f 110/142/129 629/712/129 846/929/129 422/496/129
f 629/712/130 122/163/130 435/518/130 846/929/130
f 846/929/130 435/518/130 123/164/130 630/713/130
f 422/496/129 846/929/129 630/713/129 109/140/129
f 48/69/132 395/458/132 847/930/132 227/273/132
f 395/458/133 193/234/133 631/714/133 847/930/133
f 847/930/134 631/714/134 114/150/134 426/504/134
f 227/273/135 847/930/135 426/504/135 6/12/135
f 193/234/136 505/588/136 848/931/136 631/714/136
f 505/588/136 192/233/136 632/715/136 848/931/136
f 848/931/137 632/715/137 115/152/137 427/506/137
f 631/714/137 848/931/137 427/506/137 114/150/137
f 192/233/136 504/587/136 849/932/136 632/715/136
f 504/587/136 191/232/136 633/716/136 849/932/136
f 849/932/137 633/716/137 116/154/137 428/508/137
f 632/715/137 849/932/137 428/508/137 115/152/137
f 191/232/136 503/586/136 850/933/136 633/716/136
f 503/586/136 190/231/136 634/717/136 850/933/136
f 850/933/137 634/717/137 117/156/137 429/510/137
f 633/716/137 850/933/137 429/510/137 116/154/137
f 190/231/136 502/585/136 851/934/136 634/717/136
f 502/585/136 189/230/136 635/718/136 851/934/136
f 851/934/137 635/718/137 118/158/137 430/512/137
f 634/717/137 851/934/137 430/512/137 117/156/137
f 33/49/138 400/463/138 852/935/138 219/261/138
f 400/463/139 218/259/139 636/719/139 852/935/139
f 852/935/140 636/719/140 109/141/140 421/495/140
f 219/261/141 852/935/141 421/495/141 1/3/141
f 218/259/142 530/613/142 853/936/142 636/719/142
f 530/613/142 217/258/142 637/720/142 853/936/142
f 853/936/143 637/720/143 110/143/143 422/497/143
f 636/719/143 853/936/143 422/497/143 109/141/143
f 217/258/142 529/612/142 854/937/142 637/720/142
f 529/612/142 216/257/142 638/721/142 854/937/142
f 854/937/143 638/721/143 111/145/143 423/499/143
f 637/720/143 854/937/143 423/499/143 110/143/143
f 216/257/142 528/611/142 855/938/142 638/721/142
f 528/611/142 215/256/142 639/722/142 855/938/142
f 855/938/143 639/722/143 112/147/143 424/501/143
f 638/721/143 855/938/143 424/501/143 111/145/143
f 215/256/142 527/610/142 856/939/142 639/722/142
f 527/610/142 214/255/142 640/723/142 856/939/142
f 856/939/143 640/723/143 113/149/143 425/503/143
f 639/722/143 856/939/143 425/503/143 112/147/143
f 24/35/144 246/299/144 857/940/144 451/534/144
f 246/299/145 6/12/145 426/505/145 857/940/145
f 857/940/146 426/505/146 114/151/146 641/724/146
f 451/534/147 857/940/147 641/724/147 139/180/147
f 139/180/148 641/724/148 858/941/148 452/535/148
f 641/724/149 114/151/149 427/507/149 858/941/149
f 858/941/149 427/507/149 115/153/149 642/725/149
f 452/535/148 858/941/148 642/725/148 140/181/148
f 140/181/148 642/725/148 859/942/148 453/536/148
f 642/725/149 115/153/149 428/509/149 859/942/149
f 859/942/149 428/509/149 116/155/149 643/726/149
f 453/536/148 859/942/148 643/726/148 141/182/148
f 141/182/148 643/726/148 860/943/148 454/537/148
f 643/726/149 116/155/149 429/511/149 860/943/149
f 860/943/149 429/511/149 117/157/149 644/727/149
f 454/537/148 860/943/148 644/727/148 142/183/148
f 142/183/148 644/727/148 861/944/148 455/538/148
f 644/727/149 117/157/149 430/513/149 861/944/149
f 861/944/149 430/513/149 118/159/149 645/728/149
f 455/538/148 861/944/148 645/728/148 143/184/148
f 14/25/150 236/289/150 862/945/150 476/559/150
f 236/289/151 4/10/151 416/485/151 862/945/151
f 862/945/152 416/485/152 104/131/152 646/729/152
f 476/559/153 862/945/153 646/729/153 164/205/153
f 164/205/154 646/729/154 863/946/154 477/560/154
f 646/729/155 104/131/155 417/487/155 863/946/155
f 863/946/155 417/487/155 105/133/155 647/730/155
f 477/560/154 863/946/154 647/730/154 165/206/154
f 165/206/154 647/730/154 864/947/154 478/561/154
f 647/730/155 105/133/155 418/489/155 864/947/155
f 864/947/155 418/489/155 106/135/155 648/731/155
f 478/561/154 864/947/154 648/731/154 166/207/154
f 166/207/154 648/731/154 865/948/154 479/562/154
f 648/731/155 106/135/155 419/491/155 865/948/155
f 865/948/155 419/491/155 107/137/155 649/732/155
f 479/562/154 865/948/154 649/732/154 167/208/154
f 167/208/154 649/732/154 866/949/154 480/563/154
f 649/732/155 107/137/155 420/493/155 866/949/155
f 866/949/155 420/493/155 108/139/155 650/733/155
f 480/563/154 866/949/154 650/733/154 168/209/154
